<?xml version="1.0" standalone="no"?>
<!DOCTYPE svg PUBLIC "-//W3C//DTD SVG 20010904//EN"
 "http://www.w3.org/TR/2001/REC-SVG-20010904/DTD/svg10.dtd">
<svg version="1.0" xmlns="http://www.w3.org/2000/svg"
 width="1080.000000pt" height="1361.000000pt" viewBox="0 0 1080.000000 1361.000000"
 preserveAspectRatio="xMidYMid meet">

<g transform="translate(0.000000,1361.000000) scale(0.100000,-0.100000)"
fill="#000000" stroke="none">
<path d="M5700 12511 c-47 -4 -98 -17 -135 -33 -33 -14 -130 -41 -215 -58
-204 -41 -283 -62 -410 -105 -58 -20 -125 -43 -150 -50 -145 -44 -234 -81
-282 -115 -209 -154 -305 -208 -446 -255 -59 -20 -140 -56 -181 -81 -40 -24
-81 -44 -90 -44 -10 0 -60 -44 -113 -97 -89 -92 -149 -172 -186 -251 -9 -19
-30 -49 -47 -66 -16 -18 -43 -52 -59 -77 -17 -24 -42 -58 -58 -74 l-28 -31
-177 4 c-98 3 -191 5 -208 5 -111 2 -341 -30 -495 -70 -52 -14 -111 -27 -130
-30 -19 -2 -49 -11 -67 -19 -17 -8 -33 -14 -36 -14 -15 0 -317 -152 -317 -159
0 -11 -97 -137 -132 -172 -15 -15 -32 -46 -38 -70 -7 -24 -22 -73 -35 -109
-36 -102 -39 -118 -39 -240 0 -121 25 -273 66 -399 23 -71 83 -181 99 -181 5
0 80 -68 167 -151 86 -83 177 -162 202 -176 93 -53 206 -133 292 -206 29 -25
70 -52 91 -61 53 -21 67 -61 74 -208 6 -125 2 -143 -59 -262 -6 -11 -19 -44
-29 -74 -17 -50 -17 -57 -3 -90 9 -22 15 -64 15 -100 -1 -44 5 -76 19 -105 30
-62 26 -96 -14 -134 -19 -17 -41 -44 -50 -61 -9 -17 -50 -74 -93 -129 -76 -98
-77 -98 -105 -218 -36 -148 -33 -238 8 -337 31 -73 31 -88 4 -174 -33 -109
-45 -292 -32 -524 12 -218 27 -301 77 -421 46 -107 59 -165 75 -317 6 -51 15
-103 21 -115 7 -11 17 -57 24 -101 24 -155 46 -230 85 -303 45 -81 46 -95 24
-208 -19 -102 -32 -362 -21 -438 14 -93 103 -270 169 -334 57 -56 202 -153
228 -153 19 0 74 -55 104 -103 12 -19 37 -58 57 -88 20 -30 44 -79 54 -109 35
-107 105 -257 156 -336 37 -57 38 -63 27 -95 -6 -19 -37 -72 -68 -119 -32 -47
-80 -121 -108 -165 -28 -44 -61 -86 -73 -93 -11 -7 -37 -48 -57 -90 -39 -82
-107 -177 -210 -295 -35 -40 -85 -105 -110 -145 -26 -40 -81 -122 -122 -182
-41 -60 -102 -153 -134 -206 -33 -53 -69 -99 -80 -104 -21 -8 -22 -12 -21
-246 l0 -239 74 -74 c77 -76 127 -106 158 -94 56 20 227 182 326 308 53 68
247 275 257 275 15 0 20 -31 7 -52 -8 -15 -9 -22 -1 -25 6 -2 20 -11 30 -19
14 -11 16 -17 6 -21 -10 -4 -10 -8 -1 -19 7 -8 9 -34 5 -71 -6 -62 -7 -87 -6
-143 1 -62 -11 -163 -26 -230 -9 -36 -19 -101 -23 -145 -5 -73 -8 -80 -26 -77
-15 2 -17 1 -6 -7 8 -5 11 -16 8 -25 -8 -20 48 -85 99 -116 31 -20 36 -20 61
-6 16 8 84 42 153 74 222 105 703 339 1065 518 116 57 257 132 315 167 58 35
191 115 295 179 105 64 231 138 280 165 50 28 113 63 140 78 28 15 95 54 150
85 55 31 136 76 180 100 44 24 112 63 151 86 189 114 629 338 903 459 96 42
191 85 210 96 20 10 83 40 141 65 58 25 137 61 175 79 39 18 108 47 155 65 47
18 112 43 145 56 33 13 83 30 110 38 116 34 588 157 679 177 126 27 237 63
304 99 29 16 60 26 67 24 17 -7 85 43 85 61 0 7 -11 46 -25 87 -14 40 -25 83
-25 96 0 13 -23 105 -51 205 -82 292 -99 345 -108 349 -17 6 -92 340 -126 556
-18 120 -37 237 -41 262 -6 36 -19 57 -62 102 l-55 58 18 42 c27 61 91 171
120 206 31 38 45 74 45 121 0 43 12 85 65 221 41 107 68 185 85 247 12 46 5
40 205 171 190 124 302 190 353 208 41 14 54 24 59 44 61 265 90 345 211 588
54 108 103 215 109 237 6 22 19 109 28 194 10 85 21 168 26 185 21 69 53 375
52 477 l-3 106 -78 154 c-43 85 -88 170 -100 189 -12 19 -38 67 -57 107 -32
64 -37 84 -46 195 -5 68 -14 168 -19 223 -6 55 -11 123 -12 150 -1 51 -28 137
-51 159 -6 7 -20 39 -31 72 -10 32 -35 97 -56 144 -20 47 -43 100 -50 118 -7
17 -16 32 -21 32 -5 0 -9 8 -9 19 0 10 -6 24 -14 30 -8 7 -24 44 -36 84 -12
40 -30 91 -40 113 -22 49 -114 174 -219 298 -42 48 -110 132 -151 186 -41 54
-124 158 -183 232 -59 73 -128 158 -152 189 -38 48 -51 57 -86 63 -93 15 -315
147 -497 297 -56 46 -122 97 -145 114 -23 16 -71 51 -107 76 -36 26 -110 72
-164 103 -54 31 -143 88 -196 126 -54 39 -100 70 -103 70 -2 0 -42 21 -88 48
l-84 47 -290 11 c-313 12 -315 12 -460 79 -39 18 -120 47 -180 65 -61 18 -166
53 -235 77 -146 53 -143 52 -240 44z m35 -431 c-4 -6 -55 -34 -113 -62 -59
-27 -119 -57 -134 -64 -18 -9 -28 -11 -28 -4 0 9 251 138 273 139 5 1 5 -4 2
-9z m-205 -30 c-43 -33 -123 -73 -118 -60 5 16 129 92 137 84 3 -3 -5 -14 -19
-24z m-134 -9 c-10 -15 -146 -95 -152 -88 -3 2 29 28 72 56 71 48 95 58 80 32z
m469 10 c-6 -5 -35 -18 -65 -29 -52 -20 -122 -49 -287 -121 -74 -32 -93 -37
-93 -23 0 9 175 86 320 141 103 39 144 50 125 32z m165 -42 c0 -6 18 -9 43 -7
23 2 43 -1 44 -7 4 -14 -104 -54 -145 -54 -45 -1 -312 -93 -395 -137 -38 -19
-90 -38 -117 -41 -34 -4 -72 -20 -127 -54 -43 -27 -100 -61 -126 -76 -27 -16
-96 -59 -154 -96 -58 -38 -108 -65 -111 -62 -4 4 0 10 8 15 8 5 47 31 85 59
107 76 294 192 345 213 104 44 97 40 75 48 -18 6 -15 9 20 27 46 24 323 118
375 128 19 3 44 10 55 16 32 14 99 38 113 38 6 1 12 -4 12 -10z m600 -10 c-25
-4 -72 -7 -105 -7 l-60 1 55 7 c30 4 78 7 105 7 l50 0 -45 -8z m314 1 c-11
-11 -130 -30 -193 -30 -64 0 -42 12 47 26 100 15 159 17 146 4z m-1833 -14
c-18 -21 -91 -70 -97 -64 -2 3 17 22 43 41 49 37 75 48 54 23z m54 -31 c-27
-25 -53 -45 -57 -45 -3 0 -25 -16 -48 -35 -23 -19 -47 -35 -53 -35 -7 0 8 17
32 38 126 106 230 170 126 77z m1000 6 c0 -7 -29 -24 -65 -37 -94 -34 -92 -27
10 34 38 22 55 23 55 3z m500 -1 c-11 -5 -38 -8 -60 -8 l-40 1 40 7 c22 4 49
7 60 8 l20 1 -20 -9z m-272 -17 c-7 -2 -19 -2 -25 0 -7 3 -2 5 12 5 14 0 19
-2 13 -5z m140 0 c-7 -2 -21 -2 -30 0 -10 3 -4 5 12 5 17 0 24 -2 18 -5z m437
-23 c0 -6 -23 -9 -52 -8 l-53 1 50 7 c28 4 51 8 53 8 1 1 2 -2 2 -8z m-113 -6
c-3 -3 -12 -4 -19 -1 -8 3 -5 6 6 6 11 1 17 -2 13 -5z m-1582 -14 c-3 -5 -43
-38 -88 -72 -45 -34 -138 -111 -207 -171 -126 -109 -160 -135 -160 -119 0 15
277 253 380 325 64 45 87 57 75 37z m100 -10 c-4 -6 -24 -22 -46 -36 -22 -13
-47 -31 -57 -39 -9 -8 -49 -38 -88 -67 -172 -127 -231 -172 -261 -200 -17 -17
-40 -35 -51 -42 -10 -6 -38 -24 -62 -39 -23 -16 -44 -26 -46 -24 -7 6 93 90
216 181 58 43 132 100 165 126 128 101 253 177 230 140z m535 -19 c0 -5 -7
-11 -15 -15 -15 -5 -20 5 -8 17 9 10 23 9 23 -2z m-750 -5 c0 -2 -57 -51 -127
-108 -120 -98 -161 -128 -179 -128 -13 0 40 51 86 83 25 17 81 59 125 94 71
56 95 71 95 59z m1999 -16 c-7 -5 -43 -11 -81 -15 -87 -9 -391 5 -363 16 11 5
85 6 165 3 80 -3 174 -1 210 4 67 8 92 6 69 -8z m-1094 0 c3 -5 -14 -14 -37
-20 -61 -15 -213 -67 -278 -95 -118 -51 -238 -95 -256 -95 -30 1 32 30 236
111 164 65 281 105 317 108 6 1 14 -3 18 -9z m-220 -9 c-6 -5 -28 -14 -50 -21
-22 -7 -93 -35 -158 -61 -136 -56 -155 -44 -22 14 145 63 260 97 230 68z m565
-21 c-19 -13 -30 -13 -30 0 0 6 10 10 23 10 18 0 19 -2 7 -10z m-1010 -5 c0
-3 -60 -44 -132 -92 -73 -47 -152 -99 -176 -115 -75 -52 -66 -25 10 30 165
120 298 199 298 177z m925 -5 c-113 -17 -180 -22 -173 -15 9 9 113 22 178 22
l45 0 -50 -7z m904 -5 c-13 -13 -466 -10 -499 3 -18 7 53 10 242 9 178 -1 264
-5 257 -12z m-340 -46 c90 -7 205 -8 255 -5 207 16 226 17 226 7 0 -24 -337
-34 -615 -18 -167 10 -207 15 -200 27 6 9 62 8 334 -11z m-499 1 c-11 -6 7 -9
58 -9 92 1 102 -6 20 -15 -131 -13 -283 -39 -293 -48 -11 -12 123 -3 190 12
75 17 326 21 465 8 150 -13 221 -14 453 -4 108 5 157 4 157 -3 0 -6 -17 -12
-37 -12 -21 -1 -54 -3 -73 -4 -19 -1 -96 -6 -170 -10 -91 -5 -169 -4 -238 4
-101 12 -349 18 -358 8 -2 -2 -2 -11 1 -20 9 -21 81 -24 538 -21 207 1 377 -2
377 -6 0 -15 -90 -18 -560 -19 -276 -1 -487 -6 -505 -11 -42 -14 -297 -85
-374 -105 -73 -19 -164 -62 -231 -109 -25 -18 -72 -48 -105 -66 -33 -18 -76
-42 -95 -53 -83 -47 -131 -70 -137 -64 -9 10 -17 4 192 122 105 59 206 119
225 134 19 15 47 32 63 39 15 6 27 16 27 22 0 22 -40 7 -124 -46 -49 -31 -102
-61 -119 -67 -17 -6 -59 -27 -92 -47 -195 -118 -262 -154 -269 -142 -5 8 107
76 339 207 66 37 130 76 141 87 21 18 201 74 314 97 30 6 116 15 190 21 155
11 180 17 180 37 0 20 -73 15 -318 -21 -218 -32 -339 -71 -434 -138 -35 -25
-117 -72 -184 -105 -66 -33 -138 -72 -160 -85 -63 -40 -145 -80 -152 -74 -10
11 9 23 213 136 110 62 207 118 216 126 9 8 24 12 33 8 11 -4 16 -1 16 10 0
11 18 25 48 37 74 31 112 51 112 61 0 4 -6 8 -13 8 -22 0 -186 -68 -217 -90
-16 -12 -80 -47 -142 -79 -62 -32 -171 -91 -243 -130 -130 -71 -145 -78 -145
-63 0 7 18 20 74 51 171 96 290 161 336 181 30 14 66 36 80 49 14 13 82 44
152 70 69 25 130 49 134 54 24 23 -138 -17 -236 -59 -19 -9 -51 -22 -70 -31
-19 -8 -77 -40 -130 -72 -178 -106 -474 -258 -468 -240 5 14 23 25 208 120
201 103 432 246 365 226 -187 -57 -280 -100 -502 -234 -67 -40 -125 -73 -128
-73 -14 0 -1 17 28 36 260 170 510 294 593 294 12 0 73 16 135 36 63 20 145
46 182 57 59 19 95 22 275 25 138 1 202 -1 192 -8z m-2347 -65 c-3 -9 -8 -14
-10 -11 -3 3 -2 9 2 15 9 16 15 13 8 -4z m1343 -9 c-10 -6 -33 -20 -50 -31
-94 -62 -239 -145 -244 -140 -3 3 -3 6 -1 8 2 1 29 19 59 39 98 65 243 148
249 142 3 -4 -2 -11 -13 -18z m60 -24 c-17 -28 -406 -262 -406 -244 0 10 38
36 264 175 128 80 158 94 142 69z m1622 -78 c99 -12 52 -24 -70 -18 -80 4
-156 2 -218 -6 -52 -8 -124 -14 -160 -15 -82 -2 -378 -82 -510 -138 -19 -8
-51 -18 -70 -22 -33 -7 -34 -6 -15 9 15 12 203 78 373 132 7 2 11 8 8 13 -7
11 -119 -17 -206 -52 -36 -14 -114 -37 -175 -52 -60 -15 -126 -37 -145 -50
-55 -36 -123 -78 -145 -91 -102 -56 -145 -82 -174 -103 -30 -22 -33 -23 -24
-6 18 33 40 48 215 149 192 111 190 110 314 137 52 11 118 31 146 44 108 49
298 84 298 55 0 -5 -5 -10 -12 -10 -6 0 -9 -2 -7 -4 3 -3 22 -1 44 4 22 5 100
11 174 14 74 3 136 8 139 11 7 7 156 6 220 -1z m-608 -103 c0 -5 -15 -14 -32
-19 -32 -10 -321 -99 -345 -107 -20 -7 -15 13 6 25 28 14 165 57 246 75 38 9
76 20 85 25 20 12 40 12 40 1z m56 -28 c-4 -4 -24 -13 -44 -19 -20 -6 -121
-41 -224 -77 -103 -36 -190 -62 -193 -58 -7 12 31 27 235 97 167 57 246 77
226 57z m-1564 -32 c-48 -42 -182 -124 -189 -117 -4 4 -2 10 3 16 12 12 207
130 214 130 3 -1 -10 -13 -28 -29z m-112 -12 c-19 -17 -53 -40 -75 -51 -34
-18 -38 -19 -25 -3 18 22 111 85 125 85 5 -1 -6 -14 -25 -31z m1810 13 c0 -8
-32 -20 -310 -118 -101 -36 -193 -63 -205 -61 -17 3 -16 5 10 17 41 17 477
167 493 169 6 0 12 -2 12 -7z m139 -16 c-2 -2 -59 -20 -126 -39 -67 -20 -192
-63 -278 -97 -85 -34 -160 -60 -166 -58 -11 4 182 98 200 98 5 0 31 9 57 20
41 18 121 42 229 70 32 8 91 13 84 6z m-3124 -16 c3 -5 -1 -10 -9 -10 -9 0
-16 5 -16 10 0 6 4 10 9 10 6 0 13 -4 16 -10z m4265 -10 c0 -5 -11 -10 -24
-10 -14 0 -28 5 -31 10 -4 6 7 10 24 10 17 0 31 -4 31 -10z m-1964 -9 c-3 -5
-16 -11 -28 -14 -22 -6 -22 -5 -4 8 22 17 40 20 32 6z m879 0 c-6 -5 -46 -19
-90 -30 -96 -24 -296 -90 -384 -126 -35 -14 -65 -24 -68 -22 -10 11 73 49 202
93 210 71 365 110 340 85z m641 -35 c38 -8 121 -25 184 -37 63 -12 126 -28
140 -36 14 -8 18 -12 10 -10 -8 2 -65 12 -125 22 -103 17 -173 15 -161 -4 8
-13 78 -21 207 -26 69 -2 131 -10 158 -19 51 -19 51 -19 51 -6 0 5 -11 12 -25
16 -33 8 -32 21 3 29 47 10 265 -18 290 -37 30 -25 9 -30 -104 -23 -142 9
-144 -3 -7 -34 54 -12 121 -31 148 -42 28 -10 65 -19 84 -19 24 0 34 -5 38
-20 3 -11 9 -20 14 -20 5 0 6 -13 3 -28 -5 -25 -2 -31 23 -41 27 -11 55 -55
57 -89 1 -8 15 -20 33 -27 17 -7 36 -23 43 -34 10 -19 8 -21 -22 -21 -88 1
-352 93 -366 128 -3 8 3 21 13 28 17 13 16 15 -18 29 -20 8 -41 15 -47 15 -20
0 -140 59 -140 69 0 5 8 15 18 20 26 16 6 25 -127 56 -63 15 -122 31 -131 36
-14 7 -211 23 -425 34 -109 5 -159 -3 -335 -55 -128 -37 -215 -50 -208 -30 8
25 142 66 243 76 27 3 57 7 65 10 8 3 29 8 45 11 58 9 105 24 105 33 0 14 -71
12 -175 -5 -105 -17 -115 -18 -115 -6 0 4 19 12 42 17 24 5 41 13 40 19 -4 15
-77 8 -277 -30 -94 -17 -115 -18 -115 -6 0 5 26 15 58 21 31 6 84 19 117 27
67 17 373 33 526 28 52 -2 127 -11 165 -19z m-3853 7 c-7 -2 -19 -2 -25 0 -7
3 -2 5 12 5 14 0 19 -2 13 -5z m2277 2 c0 -8 -151 -105 -162 -105 -20 0 7 22
80 65 83 48 82 48 82 40z m2155 -17 c38 -5 76 -14 85 -19 15 -10 3 -10 -250 7
-47 3 -89 10 -95 15 -12 13 159 11 260 -3z m-3190 -24 c-28 -21 -55 -36 -55
-29 0 6 62 45 70 45 3 -1 -4 -8 -15 -16z m1105 -14 c-78 -63 -212 -161 -215
-158 -2 2 28 28 67 58 39 30 89 70 110 88 22 17 45 32 51 32 7 0 1 -9 -13 -20z
m-1750 -63 c0 -18 -2 -19 -10 -7 -13 20 -13 43 0 35 6 -3 10 -16 10 -28z
m1612 12 c-18 -12 -35 -19 -38 -16 -3 3 7 12 23 21 42 23 53 19 15 -5z m-2175
-22 c-6 -15 -15 -27 -19 -27 -12 0 -10 8 8 36 21 31 28 26 11 -9z m520 -13
c-7 -7 -37 7 -37 17 0 6 9 5 21 -1 11 -7 19 -14 16 -16z m-432 -6 c-7 -17 -65
-50 -65 -37 0 5 15 18 33 29 38 24 38 23 32 8z m485 -17 c14 -26 13 -31 -6
-31 -10 0 -14 6 -11 15 4 8 2 17 -3 20 -6 4 -10 -2 -10 -11 0 -14 -3 -15 -12
-6 -10 10 -10 15 2 22 22 14 28 12 40 -9z m1085 -1 c-10 -11 -23 -20 -28 -20
-6 0 -2 9 8 20 10 11 23 20 28 20 6 0 2 -9 -8 -20z m125 10 c0 -5 -10 -15 -22
-21 -23 -12 -23 -12 -4 10 21 23 26 26 26 11z m2240 -10 c10 -6 -18 -10 -80
-11 -153 -2 -173 -16 -25 -18 167 -2 325 -27 325 -52 0 -14 -42 -16 -199 -6
-171 10 -329 2 -486 -26 -130 -24 -155 -26 -155 -17 0 5 12 16 28 24 24 12 67
22 270 58 66 12 88 34 25 24 -21 -3 -70 -8 -110 -12 -125 -11 -149 17 -36 43
65 14 415 9 443 -7z m-4064 -39 c-21 -40 -20 -48 4 -26 11 10 20 14 20 9 0 -5
-11 -17 -25 -27 -42 -30 -43 15 -1 71 16 23 18 5 2 -27z m2959 30 c-6 -5 -23
-12 -40 -16 l-30 -6 25 15 c28 17 60 22 45 7z m-561 -36 c-10 -8 -23 -14 -29
-14 -5 -1 1 8 15 19 14 10 27 17 29 14 3 -2 -4 -11 -15 -19z m90 -3 c-10 -10
-41 -32 -69 -50 -45 -29 -37 -19 22 29 21 17 55 38 62 39 3 0 -4 -8 -15 -18z
m-3144 -22 c52 -5 162 -14 245 -20 82 -6 154 -15 160 -19 16 -13 156 -21 177
-10 13 7 18 6 18 -3 0 -13 107 -40 213 -55 21 -3 41 -11 44 -19 3 -8 19 -14
36 -14 17 0 44 -4 61 -9 95 -29 122 -35 139 -33 10 2 26 -3 35 -10 10 -8 42
-20 72 -27 116 -25 130 -32 119 -53 -6 -11 -8 -22 -5 -25 8 -8 26 7 26 23 0
20 21 18 146 -19 84 -24 110 -36 107 -47 -4 -12 -3 -12 5 -2 7 11 20 10 68 -3
104 -29 142 -46 147 -66 5 -20 27 -27 27 -9 0 6 -5 10 -12 10 -6 0 -9 3 -5 6
12 12 78 -17 75 -33 -2 -9 3 -18 10 -20 6 -3 12 2 12 10 0 13 6 13 34 5 18 -6
33 -16 32 -22 0 -6 4 -11 9 -11 6 0 9 3 7 8 -3 10 22 9 52 -3 19 -7 24 -14 19
-27 -5 -17 -5 -17 8 -1 13 15 22 14 124 -17 121 -37 320 -104 347 -117 10 -4
31 -8 47 -8 16 0 31 -6 35 -15 3 -8 11 -15 18 -15 7 0 25 -6 39 -14 14 -7 37
-16 50 -19 14 -4 51 -18 81 -32 58 -26 78 -55 78 -112 0 -21 2 -22 20 -11 24
15 36 3 47 -46 6 -27 7 -28 20 -10 20 27 47 6 51 -40 4 -44 19 -47 33 -6 6 17
14 30 18 30 10 0 31 -46 32 -68 0 -14 3 -13 16 6 27 38 48 27 46 -25 -1 -17 3
-16 31 2 23 15 24 15 35 -15 9 -28 13 -30 31 -20 19 10 23 8 33 -19 8 -22 16
-29 28 -26 11 4 18 -2 22 -16 4 -16 11 -20 23 -15 20 8 34 -9 34 -43 0 -24 0
-24 21 -5 17 16 22 16 29 4 6 -8 10 -23 10 -32 0 -25 20 -32 34 -12 12 16 14
14 24 -14 12 -34 21 -39 40 -20 8 8 14 5 22 -17 10 -26 11 -27 24 -10 13 18
14 18 26 -4 9 -18 18 -22 41 -19 31 5 36 -1 18 -19 -7 -7 -6 -15 5 -26 12 -12
33 -14 98 -11 l83 4 -50 -14 c-27 -8 -54 -15 -60 -16 -5 0 1 -10 15 -21 22
-19 34 -20 110 -16 l85 6 -62 -15 c-35 -9 -63 -19 -63 -22 0 -14 67 -52 91
-52 18 0 21 -2 10 -9 -27 -17 27 -50 84 -52 48 -1 49 -1 18 -10 -39 -11 -40
-18 -7 -42 18 -13 33 -17 56 -12 37 9 31 -10 -8 -19 -21 -6 -36 2 -89 47 -34
29 -90 73 -124 98 -34 24 -97 69 -140 100 -43 31 -89 60 -102 64 -13 4 -64 31
-114 60 -49 29 -137 75 -195 103 -58 28 -190 92 -295 142 -309 150 -374 176
-669 275 -154 51 -348 121 -431 155 -82 34 -181 73 -220 87 -38 13 -109 40
-157 59 -84 32 -294 97 -503 154 -106 29 -291 69 -440 95 -49 9 -137 26 -195
37 -110 21 -339 37 -475 32 -381 -13 -457 -21 -620 -59 -88 -21 -237 -75 -373
-136 -47 -22 -62 -18 -62 12 0 31 19 59 39 59 11 0 41 15 68 33 44 29 180 90
283 126 61 22 341 88 440 104 46 8 164 7 260 -3z m3195 -11 c-23 -25 -120 -95
-110 -79 7 12 117 100 124 100 2 0 -4 -9 -14 -21z m495 -3 c0 -2 -25 -12 -55
-21 -30 -10 -73 -33 -95 -52 -22 -19 -40 -32 -40 -29 0 3 27 28 61 56 46 39
68 50 95 50 18 0 34 -2 34 -4z m110 -36 c0 -13 -91 -53 -99 -44 -3 4 -1 8 4
11 6 2 28 12 50 22 22 11 41 20 43 20 1 1 2 -4 2 -9z m1220 -33 c79 -39 88
-57 29 -57 -60 0 -309 44 -334 58 -20 12 72 30 155 31 76 0 92 -3 150 -32z
m-1004 14 c-9 -14 -135 -65 -143 -58 -9 9 -7 11 67 40 73 28 84 31 76 18z
m472 -20 c16 -10 -65 -21 -160 -21 -63 0 -91 13 -50 23 31 8 197 7 210 -2z
m-1173 -36 c-48 -41 -74 -50 -30 -11 22 19 45 35 50 36 6 0 -3 -11 -20 -25z
m325 -26 c-38 -33 -119 -83 -125 -77 -4 3 146 107 155 107 3 0 -11 -13 -30
-30z m391 -25 c-56 -22 -86 -25 -68 -8 11 11 82 33 107 33 17 0 3 -9 -39 -25z
m1063 0 c44 -8 138 -35 210 -59 130 -43 269 -86 294 -91 39 -7 63 -59 37 -78
-16 -11 -13 -15 28 -34 59 -28 70 -45 25 -38 -18 3 -67 8 -108 11 l-75 6 40
-19 c22 -11 72 -27 110 -36 70 -16 109 -37 129 -69 16 -25 -6 -35 -57 -26
-140 24 -320 72 -344 91 -6 5 -55 18 -108 29 -53 11 -120 29 -148 39 -29 11
-66 20 -84 20 -36 0 -83 18 -83 32 0 18 219 -4 423 -42 32 -6 64 -9 70 -7 19
6 -144 54 -208 62 -33 3 -89 12 -125 20 -36 8 -126 16 -200 19 -130 6 -290 31
-290 46 0 12 70 20 190 20 138 0 261 -14 361 -41 93 -26 159 -34 159 -21 0 6
-24 18 -52 28 -29 9 -58 20 -64 25 -5 5 -48 17 -95 28 -47 11 -121 32 -164 46
-79 26 -83 26 -292 21 -197 -5 -254 1 -185 19 32 8 382 21 467 17 33 -1 96 -9
139 -18z m-811 -31 c-7 -2 -19 -2 -25 0 -7 3 -2 5 12 5 14 0 19 -2 13 -5z
m-68 -13 c-16 -4 -39 -8 -50 -9 -16 -1 -17 1 -5 9 8 5 31 9 50 9 l35 -1 -30
-8z m-337 -23 c-38 -31 -133 -83 -123 -67 9 15 126 90 140 90 6 -1 -2 -11 -17
-23z m257 3 c-3 -5 -10 -10 -16 -10 -5 0 -9 5 -9 10 0 6 7 10 16 10 8 0 12 -4
9 -10z m1483 -37 c-2 -10 -7 -18 -12 -18 -5 0 -10 8 -12 18 -1 9 4 17 13 17 8
0 13 -7 11 -17z m-1304 -3 c-6 -6 -28 -13 -50 -15 l-39 -5 30 14 c36 18 74 21
59 6z m-1814 -20 c13 -9 13 -10 0 -9 -8 0 -24 4 -35 9 l-20 9 20 0 c11 0 27
-4 35 -9z m1495 -9 c-8 -15 -121 -81 -136 -81 -21 0 1 17 72 55 71 38 73 39
64 26z m470 -20 c-13 -11 -154 -45 -161 -38 -8 7 107 45 141 46 17 1 25 -3 20
-8z m-1838 -7 c-3 -3 -12 -4 -19 -1 -8 3 -5 6 6 6 11 1 17 -2 13 -5z m-3717
-18 c0 -11 -19 -15 -25 -6 -3 5 1 10 9 10 9 0 16 -2 16 -4z m3767 -2 c-3 -3
-12 -4 -19 -1 -8 3 -5 6 6 6 11 1 17 -2 13 -5z m1873 -41 c-89 -29 -160 -44
-160 -32 0 9 18 15 72 25 20 3 54 12 75 20 21 7 49 13 63 13 14 -1 -7 -12 -50
-26z m-540 -8 c0 -2 -18 -13 -40 -24 -22 -10 -40 -16 -40 -12 0 4 15 15 33 24
34 17 47 20 47 12z m810 -34 c0 -5 -24 -12 -52 -16 -29 -3 -91 -13 -138 -21
-99 -16 -128 -18 -114 -5 5 5 52 16 104 25 159 26 200 30 200 17z m-570 -25
c0 -2 -7 -7 -16 -10 -8 -3 -12 -2 -9 4 6 10 25 14 25 6z m-1095 -56 c3 -6 -1
-7 -9 -4 -18 7 -21 14 -7 14 6 0 13 -4 16 -10z m1785 0 c0 -5 -5 -10 -11 -10
-5 0 -7 5 -4 10 3 6 8 10 11 10 2 0 4 -4 4 -10z m43 3 c-7 -2 -19 -2 -25 0 -7
3 -2 5 12 5 14 0 19 -2 13 -5z m-174 -7 c-10 -9 -79 -14 -79 -5 0 5 19 9 42 9
23 0 39 -2 37 -4z m599 -42 c20 -9 57 -17 82 -19 54 -4 167 -26 270 -51 57
-14 81 -25 103 -48 l28 -31 -92 -3 c-120 -4 -174 13 -361 109 -10 5 -25 9 -33
9 -9 0 -30 7 -47 16 -24 12 -28 18 -17 25 19 12 24 11 67 -7z m-2433 -4 c-28
-12 -37 -12 -30 0 3 6 16 10 28 9 21 0 21 -1 2 -9z m2120 -31 c-42 -12 -274
-34 -282 -26 -3 4 -4 9 -1 12 7 7 170 22 248 23 53 0 60 -1 35 -9z m-2014 -14
c-18 -8 -47 -15 -65 -14 -31 1 -31 1 9 14 22 7 51 13 65 14 22 0 21 -1 -9 -14z
m65 -33 c-6 -10 -145 -36 -152 -29 -4 3 81 24 149 36 5 0 6 -3 3 -7z m2120
-30 c-7 -12 -321 -26 -338 -15 -18 11 50 19 210 21 79 2 131 -1 128 -6z
m-2306 -12 c-8 -5 -22 -10 -30 -10 -13 0 -13 1 0 10 8 5 22 10 30 10 13 0 13
-1 0 -10z m2498 -5 c63 -6 252 -35 342 -51 47 -9 94 -18 105 -20 30 -5 59 -29
51 -42 -5 -8 -43 -12 -109 -12 -91 0 -115 4 -222 39 -66 21 -148 47 -182 56
-40 11 -63 23 -63 32 0 10 6 12 20 8 11 -3 37 -8 58 -10z m-2218 -5 c-21 -11
-188 -42 -203 -37 -11 3 157 42 198 44 16 2 17 0 5 -7z m1147 -26 c-27 -14
-51 -23 -54 -20 -6 6 75 46 92 45 6 0 -12 -11 -38 -25z m-1079 -20 c-9 -9
-147 -41 -208 -49 -93 -12 -47 6 77 30 136 27 138 27 131 19z m1875 -21 c132
-5 171 -13 135 -26 -7 -2 -71 -2 -143 1 -107 3 -135 8 -160 24 -28 18 -28 19
-5 14 14 -4 91 -9 173 -13z m-727 -18 c-11 -8 -25 -15 -30 -15 -6 0 -2 7 8 15
11 8 25 15 30 15 6 0 2 -7 -8 -15z m-1006 -9 c0 -2 -33 -9 -72 -16 -40 -6
-105 -18 -145 -26 -82 -16 -132 -18 -117 -5 5 4 63 15 129 24 66 9 131 18 145
21 40 6 60 6 60 2z m955 -16 c-3 -5 -12 -10 -18 -10 -7 0 -6 4 3 10 19 12 23
12 15 0z m215 0 c-8 -5 -19 -10 -25 -10 -5 0 -3 5 5 10 8 5 20 10 25 10 6 0 3
-5 -5 -10z m1266 -50 c94 -17 104 -20 104 -33 0 -7 13 -20 29 -30 31 -18 101
-92 101 -106 0 -13 -65 -6 -115 12 -22 8 -77 33 -123 56 -45 22 -94 41 -109
41 -29 0 -149 30 -195 49 -16 6 -28 16 -28 22 0 14 237 6 336 -11z m-2388 3
c-10 -2 -28 -2 -40 0 -13 2 -5 4 17 4 22 1 32 -1 23 -4z m-2259 -7 c-2 -2 -21
-6 -42 -10 -27 -5 -37 -4 -32 3 3 6 22 11 42 11 20 0 34 -2 32 -4z m2141 -7
c-30 -5 -74 -13 -98 -19 -52 -12 -82 -13 -82 -1 0 9 123 28 190 28 l45 1 -55
-9z m1926 0 c-28 -4 -66 -4 -85 1 -29 6 -18 8 49 8 78 0 81 -1 36 -9z m-3983
-6 c-7 -2 -19 -2 -25 0 -7 3 -2 5 12 5 14 0 19 -2 13 -5z m130 0 c-7 -2 -21
-2 -30 0 -10 3 -4 5 12 5 17 0 24 -2 18 -5z m1005 -2 c9 -5 62 -26 117 -47
120 -45 339 -147 349 -162 4 -7 -6 -53 -22 -104 -29 -91 -38 -163 -22 -173 5
-3 18 7 31 22 15 20 20 22 14 8 -19 -51 -15 -56 14 -17 18 24 35 41 38 38 3
-3 -4 -17 -16 -32 -23 -29 -81 -148 -100 -203 -6 -18 -9 -50 -6 -70 2 -20 7
-83 10 -141 4 -82 13 -125 37 -195 17 -49 38 -99 46 -110 13 -18 14 -17 8 15
-29 157 -31 284 -6 373 18 62 25 42 22 -60 -2 -53 2 -126 9 -162 11 -61 14
-94 20 -211 2 -37 4 -32 8 25 l6 70 14 -75 c18 -95 30 -120 31 -61 0 61 8 48
25 -44 9 -43 20 -84 27 -92 8 -10 7 -17 -8 -28 -18 -13 -17 -14 14 -15 34 0
46 25 17 36 -8 4 -15 18 -15 33 0 15 -9 61 -20 102 -22 82 -25 134 -10 188 5
20 12 58 15 84 11 86 16 43 16 -129 -1 -92 1 -166 3 -163 2 2 11 32 20 67 12
47 14 88 10 165 -5 85 -4 100 7 89 10 -9 13 -46 12 -148 -1 -75 1 -133 5 -130
3 4 16 37 29 74 l23 67 -5 -55 c-3 -30 -5 -104 -6 -165 -1 -98 -3 -105 -12
-67 -12 53 -27 55 -27 3 0 -51 10 -101 21 -101 4 0 27 -18 49 -40 22 -22 42
-40 43 -40 1 0 0 45 -1 99 -2 59 1 107 7 118 8 13 10 -25 10 -146 0 -93 4
-168 9 -173 7 -7 10 44 10 143 0 113 5 167 16 204 l16 50 -6 -105 c-4 -78 -7
-466 -4 -542 0 -5 4 -8 9 -8 5 0 8 10 8 23 -1 22 19 161 31 207 5 22 6 20 11
-15 6 -38 3 -73 -14 -207 -11 -84 9 -73 30 17 9 41 21 75 26 75 13 0 11 -87
-2 -112 -6 -11 -8 -23 -4 -26 10 -10 45 37 45 60 0 10 4 17 9 14 5 -3 7 -42 4
-86 -3 -44 -2 -80 1 -80 3 0 13 25 22 55 10 30 21 55 25 55 4 0 9 -19 11 -42
3 -42 4 -43 113 -115 69 -46 111 -69 114 -61 2 7 -4 17 -13 23 -34 20 -88 76
-81 83 4 4 10 1 12 -5 7 -20 20 -15 28 10 7 19 9 18 12 -13 5 -35 27 -70 46
-70 5 0 6 7 3 16 -4 12 -1 14 14 9 16 -5 20 -2 20 14 0 12 -7 21 -14 21 -12 0
-11 9 6 50 11 27 25 47 30 44 5 -4 5 -10 -1 -17 -11 -14 11 -51 24 -39 14 13
-6 -69 -27 -110 -15 -29 -19 -45 -11 -56 17 -28 31 -24 42 10 16 52 60 166 77
199 8 16 39 59 69 94 30 35 55 69 55 75 0 5 4 9 9 8 4 -2 17 7 27 20 13 16 33
24 63 27 24 3 53 7 64 11 18 6 19 3 14 -30 -3 -20 -3 -36 0 -36 3 0 26 17 52
39 58 48 83 61 116 61 14 0 42 8 63 18 83 41 164 66 181 55 10 -6 58 -14 107
-18 49 -4 99 -11 110 -16 30 -11 212 -150 252 -191 34 -36 77 -136 97 -228 16
-77 13 -668 -4 -730 -11 -38 -65 -166 -116 -275 -69 -146 -181 -272 -260 -294
-22 -6 -77 -34 -123 -62 -63 -38 -90 -50 -110 -46 -33 6 -82 -2 -82 -14 0 -5
19 -9 43 -10 37 0 39 -1 18 -10 -13 -5 -33 -9 -45 -8 -39 4 -57 -1 -50 -12 4
-7 20 -8 41 -4 27 5 34 3 31 -7 -3 -8 -28 -15 -69 -18 -60 -5 -62 -6 -40 -18
12 -8 32 -11 43 -9 12 4 18 1 15 -6 -2 -7 -26 -12 -58 -12 -54 0 -72 -17 -24
-23 46 -6 26 -21 -32 -24 -53 -4 -55 -5 -25 -12 47 -12 41 -30 -8 -22 -32 5
-40 3 -40 -9 0 -8 5 -15 10 -15 6 0 10 -5 10 -11 0 -9 -20 -10 -70 -5 -53 5
-79 13 -113 36 -53 35 -62 62 -47 136 13 61 8 79 -19 65 -24 -14 -57 -95 -71
-176 -11 -68 -11 -72 17 -135 27 -60 30 -76 31 -190 3 -226 -23 -400 -75 -505
-45 -90 -162 -289 -189 -320 -22 -27 -24 -27 -13 -5 21 44 161 295 170 305 11
11 12 45 1 45 -4 0 -23 -30 -41 -67 -63 -128 -196 -339 -177 -280 10 31 -9 18
-48 -34 -54 -73 -55 -54 -1 31 26 39 45 73 42 76 -2 2 -46 -44 -98 -102 -122
-138 -288 -288 -408 -368 -103 -69 -256 -156 -275 -156 -6 0 -23 -8 -37 -18
-116 -77 -141 -93 -145 -89 -2 2 21 25 52 51 31 25 54 46 50 46 -3 0 -41 -25
-83 -55 -163 -114 -192 -133 -315 -209 -77 -47 -136 -76 -148 -74 -16 2 5 19
77 61 289 171 597 393 830 600 52 46 78 62 53 32 -7 -9 -11 -17 -9 -19 10 -10
229 217 279 288 68 98 113 176 105 184 -9 9 -32 -18 -78 -96 -50 -83 -154
-212 -171 -212 -18 0 -118 -105 -109 -115 5 -4 3 -5 -4 -2 -6 4 -17 1 -25 -6
-7 -7 -65 -48 -128 -91 -63 -42 -137 -95 -165 -117 -76 -61 -153 -119 -160
-119 -3 0 -33 -22 -68 -49 -73 -56 -205 -151 -212 -151 -2 0 -35 -20 -72 -44
-84 -53 -183 -110 -183 -103 0 5 216 159 373 266 66 46 92 71 72 71 -3 0 -43
-28 -89 -62 -99 -74 -318 -212 -361 -228 -40 -15 -34 -11 104 83 210 143 308
217 336 253 15 19 25 37 24 39 -4 3 -258 -172 -358 -248 -35 -26 -66 -45 -70
-42 -3 3 -1 9 5 13 101 68 212 152 201 152 -3 0 -44 -20 -92 -45 -90 -47 -139
-57 -69 -15 90 55 309 201 449 299 219 153 333 247 351 289 8 19 13 36 11 38
-1 2 -41 -32 -89 -75 -90 -83 -252 -209 -334 -260 -89 -57 -68 -31 41 48 121
90 357 287 374 314 22 34 -7 16 -109 -71 -165 -138 -360 -279 -360 -258 0 2
60 48 133 101 192 143 327 255 327 273 0 13 -2 13 -17 0 -10 -8 -45 -37 -78
-65 -33 -28 -109 -88 -170 -133 -60 -46 -127 -97 -147 -113 -21 -17 -40 -28
-43 -26 -2 3 54 52 125 109 115 91 145 120 124 120 -3 0 -40 -28 -83 -62 -175
-141 -440 -292 -681 -388 -58 -23 -148 -59 -200 -80 -53 -21 -147 -49 -210
-63 -138 -31 -276 -45 -266 -28 4 6 28 11 53 11 25 0 100 11 167 25 179 36
579 201 846 349 130 72 165 96 263 179 83 71 70 77 -20 9 -82 -62 -252 -166
-260 -159 -2 3 46 39 106 81 61 42 111 81 111 86 0 11 -163 -90 -261 -161 -84
-61 -237 -141 -340 -177 -46 -17 -120 -45 -164 -63 -95 -38 -240 -79 -275 -78
-14 0 13 11 59 24 174 50 252 81 446 177 243 121 246 123 365 217 52 41 97 76
99 78 2 2 2 5 0 8 -3 2 -45 -23 -93 -56 -112 -76 -175 -113 -182 -106 -5 5
110 90 216 159 30 20 66 47 80 60 14 13 46 39 73 58 30 22 44 37 38 43 -7 7
-30 -9 -67 -42 -32 -29 -67 -57 -78 -62 -12 -4 -66 -40 -121 -78 -207 -145
-286 -190 -510 -286 -180 -78 -236 -92 -527 -130 -29 -4 -48 -2 -48 4 0 5 26
13 58 16 82 10 273 51 368 80 131 40 177 94 52 61 -442 -118 -675 -139 -991
-91 -19 3 -30 0 -34 -11 -10 -26 1 -29 110 -33 15 -1 27 -5 27 -10 0 -5 -59
-7 -140 -4 -116 5 -140 4 -140 -8 0 -11 13 -13 57 -11 32 2 55 1 51 -3 -4 -4
-31 -10 -60 -12 -65 -4 -81 -10 -72 -24 4 -7 27 -9 63 -6 77 8 43 -9 -50 -24
-41 -7 -87 -19 -104 -26 -28 -13 -24 -13 45 -8 121 11 74 -4 -66 -21 -71 -8
-138 -17 -150 -20 -30 -8 -321 15 -366 28 -56 16 -47 30 15 23 189 -23 372
-24 364 -2 -2 8 -48 13 -157 15 -88 2 -162 8 -174 15 -12 6 -55 16 -96 21 -62
9 -75 14 -74 29 1 12 -5 17 -21 17 -13 0 -30 3 -39 6 -27 10 -7 24 35 24 41 0
42 0 33 23 -4 10 -16 13 -45 10 -49 -6 -92 4 -83 18 3 6 15 8 27 5 24 -6 60
11 52 25 -4 5 -21 7 -40 3 -41 -7 -56 12 -15 21 43 10 47 25 6 25 -46 0 -46
16 0 27 44 10 41 28 -5 28 -19 0 -36 6 -38 13 -3 8 8 12 37 12 34 0 41 3 38
18 -3 13 -13 17 -42 17 -62 0 -57 23 5 27 64 4 78 25 19 30 -49 4 -54 21 -8
28 41 6 45 34 5 38 -35 4 -25 22 13 22 40 0 60 9 53 26 -3 8 0 14 6 14 6 0 11
5 11 11 0 5 -5 7 -11 3 -18 -11 -111 -15 -105 -5 4 5 25 13 49 17 37 6 39 8
17 14 -32 8 -110 1 -110 -11 0 -5 -13 -9 -30 -9 -16 0 -30 5 -30 11 0 6 7 8
17 5 14 -6 14 -3 -3 16 -32 35 -35 44 -25 71 11 29 69 58 98 51 14 -4 28 1 39
15 13 15 21 18 31 10 17 -15 21 -3 43 138 l18 118 1 -130 c1 -77 5 -125 10
-120 5 6 15 58 22 117 10 85 10 115 0 148 -12 42 -31 46 -31 7 -1 -20 -2 -20
-16 6 -8 15 -20 28 -27 29 -7 0 -16 2 -22 2 -5 1 -16 5 -23 10 -12 7 -72 9
-221 6 -35 -1 -68 3 -74 9 -8 8 -8 11 1 11 19 0 14 18 -7 25 -13 4 -23 23 -33
63 -8 31 -18 56 -23 55 -16 -4 -18 -73 -2 -91 10 -13 13 -35 9 -84 -2 -38 -8
-68 -12 -68 -14 0 -40 91 -40 138 0 60 46 192 76 220 14 12 34 22 45 22 11 0
41 6 67 14 125 37 213 45 417 40 274 -6 408 -37 495 -114 33 -29 41 -31 128
-35 129 -6 158 -21 199 -105 17 -35 37 -66 42 -68 6 -2 11 -8 11 -13 0 -4 -7
-6 -15 -3 -32 13 -15 -39 27 -78 39 -36 40 -39 15 -33 -38 10 -36 -14 6 -55
17 -17 26 -30 18 -28 -27 6 -22 -21 11 -53 37 -35 114 -73 135 -65 21 8 4 32
-36 50 -21 10 -51 29 -67 42 -32 28 -31 28 39 -5 86 -39 87 -2 1 50 -30 18
-54 37 -54 42 0 5 15 -1 34 -12 69 -43 79 -12 11 34 -43 29 -56 45 -36 45 6 0
13 -4 16 -10 9 -15 45 -12 45 3 0 7 -14 21 -31 31 -43 26 -98 75 -111 100 -6
12 5 5 27 -17 39 -39 61 -44 78 -16 8 13 1 25 -31 57 -23 23 -49 59 -58 79
-28 66 -72 201 -79 242 -3 21 -12 47 -20 57 -11 15 -11 5 0 -56 8 -41 21 -97
29 -125 8 -27 14 -51 12 -53 -6 -5 -26 56 -53 163 -13 55 -32 107 -40 115 -14
13 -15 12 -10 -10 5 -21 -1 -17 -39 23 -24 27 -44 43 -44 35 0 -7 21 -35 46
-60 25 -26 44 -52 42 -59 -2 -6 -32 19 -66 56 -35 37 -66 65 -68 62 -5 -5 71
-95 118 -140 10 -10 18 -23 18 -30 0 -7 -38 27 -83 76 -46 48 -90 87 -97 87
-8 0 5 -19 28 -43 57 -58 54 -73 -3 -17 -56 55 -58 44 -4 -22 63 -75 40 -67
-34 12 -37 38 -69 70 -72 70 -14 0 -1 -23 41 -69 25 -28 42 -51 37 -51 -4 0
-35 29 -67 65 -64 71 -91 82 -32 14 56 -66 42 -71 -19 -6 -65 69 -81 75 -28
10 36 -44 31 -50 -10 -15 -16 14 -17 14 -11 -1 9 -25 -4 -21 -41 11 -25 22
-40 28 -69 26 -24 -2 -77 11 -149 36 -69 24 -145 43 -199 49 -48 6 -104 14
-125 20 -21 5 -67 12 -103 14 -36 3 -70 7 -76 9 -6 1 -23 -11 -37 -28 -15 -17
-40 -37 -57 -44 -31 -13 -40 -30 -17 -30 7 0 18 5 25 12 9 9 12 8 12 -5 0 -9
6 -17 13 -17 6 0 1 -9 -13 -20 -32 -25 -20 -25 32 0 50 24 65 25 48 5 -19 -23
5 -20 46 6 37 23 48 13 12 -11 -70 -44 -117 -63 -102 -39 5 9 -1 10 -22 4 -52
-15 -79 -12 -76 8 2 10 -3 17 -13 17 -9 0 -14 4 -11 8 3 5 -4 15 -14 22 -14
10 -16 17 -8 27 7 9 6 14 -6 19 -11 4 -15 13 -11 25 4 12 2 19 -7 19 -23 0
-51 -26 -46 -41 3 -8 -2 -19 -11 -25 -12 -10 -13 -15 -3 -27 7 -8 10 -22 6
-31 -4 -11 -1 -16 12 -16 15 0 16 -2 5 -9 -7 -5 -11 -14 -7 -19 4 -6 1 -21 -6
-32 -11 -17 -11 -22 1 -29 8 -5 11 -16 6 -30 -3 -12 -2 -21 4 -21 6 0 9 -13 8
-30 -1 -16 -5 -30 -8 -30 -14 0 -40 85 -38 120 2 19 0 40 -3 46 -12 19 0 129
21 192 12 34 21 81 22 104 1 52 12 87 23 70 5 -9 16 -5 38 13 16 14 40 25 54
25 33 0 30 -7 -8 -23 -33 -14 -88 -63 -88 -78 0 -19 23 -20 43 -2 24 21 107
57 107 46 0 -3 -7 -15 -17 -25 -26 -29 -6 -34 42 -10 41 20 62 52 34 52 -8 0
-8 4 -2 13 14 16 14 80 1 88 -6 4 -2 10 11 14 16 5 20 12 16 26 -4 12 -1 21 8
25 9 3 21 19 28 35 6 17 32 44 58 61 38 27 61 34 146 45 55 6 136 12 180 13
121 1 163 16 231 81 33 31 67 68 77 83 10 14 22 26 27 26 18 0 81 -95 132
-200 28 -58 80 -149 117 -202 36 -54 84 -132 106 -174 45 -85 27 -72 294 -203
69 -34 130 -66 138 -72 9 -9 14 -7 19 5 9 23 -9 41 -64 61 -113 44 -302 148
-302 167 0 4 17 -2 38 -15 48 -31 268 -126 350 -151 38 -12 25 14 -15 30 -76
30 -219 104 -248 129 l-30 26 40 -19 c83 -40 112 -52 193 -82 83 -30 128 -38
118 -21 -4 5 -39 22 -79 37 -39 15 -103 43 -142 63 -71 37 -205 120 -205 127
0 7 52 -16 136 -62 90 -48 280 -118 288 -105 6 10 -50 41 -129 71 -58 23 -262
138 -298 168 -9 9 -15 17 -12 20 2 3 11 0 19 -7 30 -25 297 -161 316 -161 26
0 5 18 -44 39 -30 12 -101 51 -158 87 -57 35 -107 66 -113 68 -5 2 -8 6 -5 9
3 3 55 -19 115 -49 61 -31 125 -61 143 -69 30 -13 32 -13 32 6 0 13 -8 23 -21
26 -65 17 -298 147 -286 159 3 3 52 -20 111 -51 58 -30 113 -55 121 -55 31 0
13 17 -52 49 -54 26 -201 111 -222 128 -2 2 -2 5 1 9 5 5 55 -20 202 -99 27
-15 56 -27 64 -27 31 0 -22 41 -103 81 -97 47 -164 86 -202 117 -15 12 -32 22
-38 22 -5 1 -23 12 -40 26 -47 39 40 -3 223 -106 85 -48 114 -58 98 -31 -4 5
-55 36 -114 69 -190 105 -207 115 -235 135 -16 10 -26 22 -23 25 3 3 14 -2 23
-10 27 -24 164 -90 171 -83 14 14 -19 43 -94 80 -131 66 -162 89 -174 134 -40
148 -138 388 -168 411 -10 8 -32 48 -32 60 0 22 -36 90 -47 90 -7 0 -13 11
-13 25 0 14 -3 25 -7 25 -5 0 -18 3 -29 6 -16 4 -23 0 -27 -16 -9 -36 19 -147
45 -179 14 -16 35 -55 47 -87 12 -33 27 -66 31 -76 18 -34 32 -154 27 -228 -5
-76 -44 -180 -67 -180 -13 0 -13 1 6 38 23 47 7 60 -27 20 l-28 -33 6 38 c6
42 -7 49 -30 14 -14 -21 -107 -54 -107 -38 0 4 20 17 45 31 25 14 45 28 45 32
0 19 -22 15 -73 -13 -30 -16 -58 -26 -61 -21 -2 4 11 16 30 27 53 29 44 49
-12 25 -60 -26 -65 -25 -29 6 l30 26 -40 -6 c-22 -3 -34 -3 -27 0 6 3 12 10
12 15 0 6 -21 7 -52 3 -49 -7 -52 -6 -39 9 12 15 10 17 -23 17 -22 0 -35 4
-31 10 4 6 -5 10 -19 10 -16 0 -25 5 -23 13 2 13 0 13 -52 3 -27 -5 -32 -3
-27 9 8 22 -7 19 -85 -16 -38 -16 -93 -32 -122 -35 l-52 -4 50 14 c69 20 145
55 145 66 0 14 -12 12 -48 -5 -35 -18 -153 -27 -227 -17 -42 6 -32 8 62 12 75
3 116 9 125 19 11 11 6 12 -32 5 -73 -12 -222 -6 -261 10 -33 15 -32 15 46 10
44 -2 88 -7 97 -10 10 -3 26 -1 35 5 16 9 15 11 -10 20 -16 6 -43 11 -60 11
-68 1 -166 27 -201 53 -30 23 -35 35 -42 83 -4 35 -2 72 5 98 16 56 63 170 74
177 4 3 16 21 25 40 9 19 26 35 37 37 11 2 40 29 65 60 25 31 93 107 151 167
315 325 297 304 317 375 11 36 20 97 21 135 2 67 9 92 42 142 11 19 12 27 1
44 -10 15 -10 24 -2 34 12 15 -3 31 -20 20 -16 -10 -12 21 5 35 8 7 12 16 9
22 -3 5 -12 4 -20 -3 -11 -9 -14 -8 -14 4 0 8 7 20 15 27 19 16 19 30 1 30 -8
0 -14 10 -14 23 -1 54 -7 97 -13 97 -14 0 -29 62 -19 80 11 20 4 30 -22 30
-20 0 -24 -25 -6 -36 8 -5 -4 -12 -31 -19 -53 -13 -63 -30 -20 -33 36 -3 49
-9 49 -23 0 -5 -11 -7 -24 -3 -17 4 -27 1 -34 -12 -6 -11 -17 -15 -31 -11 -16
4 -21 1 -21 -14 0 -22 -4 -23 -29 -9 -16 8 -17 6 -13 -17 5 -24 3 -25 -22 -19
-19 5 -26 3 -21 -4 4 -6 4 -18 1 -27 -6 -13 -9 -13 -33 2 -24 16 -27 16 -35 1
-11 -19 -44 -21 -51 -3 -2 6 0 22 4 35 5 13 5 22 -2 22 -5 0 -12 -7 -15 -15
-4 -8 -10 -15 -15 -15 -18 0 -8 31 26 79 19 26 35 52 35 56 0 4 20 37 44 74
24 36 54 86 66 111 12 25 31 56 40 70 10 14 30 54 45 90 62 151 99 213 170
284 62 62 85 78 185 123 121 54 278 104 470 151 97 24 115 31 112 46 -3 17 7
18 167 15 134 -3 170 -1 166 9 -6 16 12 15 115 -7 65 -14 78 -20 55 -23 -29
-4 -28 -4 15 -17 25 -6 54 -15 65 -18 20 -6 20 -5 1 16 -19 21 -19 21 2 21 12
0 22 5 22 10 0 7 122 11 368 11 322 0 456 6 595 28 4 0 15 -3 25 -8z m1177
-47 c-38 -7 -99 -12 -135 -12 -74 1 -60 5 55 17 123 13 160 11 80 -5z m1868 0
c20 -4 37 -11 37 -17 0 -6 -28 -8 -77 -3 -104 8 -177 17 -182 22 -7 6 181 4
222 -2z m-2090 -21 c-13 -2 -33 -2 -45 0 -13 2 -3 4 22 4 25 0 35 -2 23 -4z
m577 -8 c11 -13 10 -14 -4 -9 -9 3 -16 10 -16 15 0 13 6 11 20 -6z m770 10 c0
-9 -141 -67 -148 -61 -5 5 10 13 93 45 59 23 55 22 55 16z m-1437 -12 c-7 -2
-19 -2 -25 0 -7 3 -2 5 12 5 14 0 19 -2 13 -5z m2407 -9 c50 -6 92 -18 191
-56 19 -7 64 -32 100 -56 36 -23 73 -42 82 -42 32 0 25 -17 -12 -29 -35 -10
-45 -8 -102 18 -35 16 -73 38 -85 49 -11 11 -36 23 -55 27 -46 9 -185 54 -233
76 l-40 17 35 4 c19 3 41 3 49 2 8 -1 40 -6 70 -10z m-338 -50 c21 -4 35 -10
32 -15 -6 -11 -145 0 -158 12 -11 10 70 12 126 3z m-625 -29 c-26 -13 -62 -26
-80 -30 -21 -4 -10 4 33 24 77 35 116 40 47 6z m971 -30 c111 -12 240 -71 214
-97 -7 -7 -48 1 -129 26 -180 56 -214 66 -229 66 -7 0 -16 4 -19 10 -6 9 39 8
163 -5z m-413 -15 c44 -5 97 -11 118 -12 37 -2 55 -12 40 -21 -6 -4 -205 15
-250 23 -2 0 -3 5 -3 10 0 12 -3 12 95 0z m-1435 -14 c0 -2 -16 -6 -35 -8 -19
-2 -35 0 -35 4 0 4 16 8 35 8 19 0 35 -2 35 -4z m-97 -13 c-13 -2 -33 -2 -45
0 -13 2 -3 4 22 4 25 0 35 -2 23 -4z m-193 -13 c0 -5 -12 -10 -27 -9 l-28 1
25 8 c14 4 26 8 28 9 1 1 2 -3 2 -9z m115 5 c-25 -9 -104 -12 -99 -4 3 5 29 9
57 8 29 0 48 -2 42 -4z m561 -36 c19 -22 19 -22 -3 -10 -24 12 -39 31 -25 31
5 0 17 -10 28 -21z m1049 5 c50 -9 95 -21 100 -26 7 -7 3 -8 -10 -5 -11 3 -49
8 -85 12 -36 3 -76 13 -90 20 -32 18 -23 18 85 -1z m805 -53 c50 -19 75 -34
83 -52 7 -13 28 -32 46 -41 19 -9 41 -24 50 -32 13 -14 13 -16 -3 -22 -10 -4
-34 -2 -54 4 -20 6 -38 10 -39 8 -2 -2 11 -19 29 -37 27 -27 30 -34 16 -37
-14 -3 -143 53 -198 86 -8 5 -57 29 -108 53 -112 53 -131 69 -78 69 39 0 123
-38 169 -76 26 -22 57 -32 57 -19 0 3 -25 30 -56 60 -85 82 -61 93 86 36z
m-2243 23 c-3 -3 -12 -4 -19 -1 -8 3 -5 6 6 6 11 1 17 -2 13 -5z m1643 -10 c0
-2 -7 -4 -15 -4 -8 0 -15 4 -15 10 0 5 7 7 15 4 8 -4 15 -8 15 -10z m-984
-216 c205 -202 382 -396 458 -503 l28 -40 -39 41 c-21 22 -76 85 -122 140 -47
54 -195 208 -330 342 -135 133 -240 242 -233 242 6 0 113 -100 238 -222z
m1214 212 c0 -5 -7 -7 -15 -4 -8 4 -15 8 -15 10 0 2 7 4 15 4 8 0 15 -4 15
-10z m-2025 -10 c-45 -11 -85 -11 -85 0 0 6 25 9 58 9 47 -1 52 -3 27 -9z
m1608 -25 c12 -2 83 -11 157 -20 74 -9 136 -18 139 -22 9 -8 -197 4 -272 17
-36 7 -74 18 -84 26 -19 15 -18 15 60 -1z m-1173 -5 c0 -5 -10 -10 -22 -10
-19 0 -20 2 -8 10 19 13 30 13 30 0z m1229 -80 c79 -9 100 -15 90 -24 -2 -2
-35 1 -74 6 -38 5 -89 11 -112 14 -24 3 -43 10 -43 15 0 6 12 8 28 5 15 -3 65
-10 111 -16z m-1252 4 c-3 -3 -12 -4 -19 -1 -8 3 -5 6 6 6 11 1 17 -2 13 -5z
m1823 -54 c13 -8 13 -10 -2 -10 -9 0 -20 5 -23 10 -8 13 5 13 25 0z m-1707 -7
c-7 -2 -21 -2 -30 0 -10 3 -4 5 12 5 17 0 24 -2 18 -5z m1807 -16 c24 -10 24
-11 3 -14 -20 -4 -83 21 -83 32 0 7 46 -4 80 -18z m-1871 9 c-11 -9 -69 -14
-69 -6 0 6 17 10 37 10 20 0 34 -2 32 -4z m-1184 -53 c-30 -82 -92 -234 -98
-239 -10 -11 4 81 20 125 19 52 74 151 85 151 4 0 1 -17 -7 -37z m1042 31 c-3
-3 -12 -4 -19 -1 -8 3 -5 6 6 6 11 1 17 -2 13 -5z m1661 -10 c29 -4 55 -11 59
-17 3 -6 -11 -7 -38 -2 -62 9 -119 25 -119 32 0 3 10 3 23 -1 12 -3 46 -9 75
-12z m-2777 -58 c-27 -67 -37 -78 -27 -29 6 27 41 93 50 93 2 0 -8 -29 -23
-64z m1519 35 c-23 -13 -90 -21 -90 -11 0 10 29 17 75 18 21 1 25 -1 15 -7z
m1831 -41 c61 -23 121 -68 102 -76 -17 -8 -16 -29 2 -44 12 -10 15 -9 15 6 0
16 2 17 10 4 7 -11 5 -18 -6 -27 -13 -9 -13 -14 -2 -32 22 -35 -1 -43 -60 -22
-73 27 -117 54 -117 73 0 9 -16 27 -35 40 -41 28 -66 68 -56 93 5 15 14 17 50
12 24 -4 67 -15 97 -27z m-628 -41 c21 -6 36 -13 33 -16 -8 -8 -125 18 -133
30 -6 11 26 6 100 -14z m-1146 5 c-3 -3 -12 -4 -19 -1 -8 3 -5 6 6 6 11 1 17
-2 13 -5z m1543 -20 c58 -9 160 -50 160 -64 0 -29 -99 -12 -197 35 -80 37 -97
59 -35 44 20 -5 53 -12 72 -15z m-309 -12 c-7 -2 -18 1 -23 6 -8 8 -4 9 13 5
13 -4 18 -8 10 -11z m-1191 -36 c0 -2 -11 -6 -25 -8 -14 -3 -25 -1 -25 3 0 5
11 9 25 9 14 0 25 -2 25 -4z m1115 -36 c50 -11 100 -22 113 -25 41 -10 22 -22
-20 -14 -24 5 -65 13 -93 19 -79 15 -125 30 -125 41 0 6 8 8 18 5 9 -3 58 -15
107 -26z m-2657 -108 c-6 -62 -15 -112 -19 -112 -12 0 -11 32 1 127 12 83 18
109 25 101 3 -2 0 -55 -7 -116z m1652 78 c-8 -5 -31 -9 -50 -9 -32 1 -33 2
-10 9 14 4 36 8 50 9 20 1 22 -1 10 -9z m-1577 -59 c8 -32 -7 -169 -20 -181
-3 -3 -3 40 0 95 3 59 2 88 -2 70 -5 -16 -9 -70 -10 -120 -2 -72 -4 -85 -13
-65 -16 39 6 244 25 237 6 -2 15 -18 20 -36z m583 -36 c-4 -41 -13 -96 -21
-122 -8 -26 -15 -58 -15 -70 0 -12 -4 -25 -10 -28 -11 -7 -7 19 21 140 10 44
19 97 19 118 0 20 3 37 6 37 4 0 4 -34 0 -75z m2494 55 c52 -6 112 -16 133
-21 56 -15 109 -49 105 -68 -5 -22 -52 -16 -105 14 -23 13 -51 21 -61 18 -21
-5 -189 50 -206 68 -8 9 -5 10 14 6 14 -3 68 -11 120 -17z m-1990 -10 c0 -5
-5 -10 -11 -10 -5 0 -7 5 -4 10 3 6 8 10 11 10 2 0 4 -4 4 -10z m1563 -22 c48
-12 87 -25 87 -30 0 -5 -12 -6 -27 -2 -71 15 -163 43 -180 54 -21 13 -27 14
120 -22z m-1056 -14 c-3 -3 -12 -4 -19 -1 -8 3 -5 6 6 6 11 1 17 -2 13 -5z
m922 -29 c47 -14 92 -25 100 -25 9 -1 30 -7 46 -16 l30 -14 -39 5 c-59 7 -256
66 -256 77 0 5 8 7 18 4 9 -3 55 -17 101 -31z m-2699 -32 c0 -31 -3 -54 -6
-51 -10 10 -13 108 -3 108 5 0 9 -25 9 -57z m1539 33 c-2 -2 -44 -6 -94 -10
-58 -4 -83 -2 -70 3 19 9 173 15 164 7z m-819 -85 c-6 -39 -15 -69 -20 -66 -4
2 -1 28 6 57 8 29 14 61 14 72 0 11 3 17 6 13 3 -3 1 -38 -6 -76z m2350 59 c0
-5 -2 -10 -4 -10 -3 0 -8 5 -11 10 -3 6 -1 10 4 10 6 0 11 -4 11 -10z m177
-16 c40 -9 70 -21 67 -26 -10 -15 -113 0 -166 25 l-53 25 40 -3 c22 -2 72 -11
112 -21z m-1347 7 c0 -9 -71 -21 -123 -21 -49 0 -25 10 44 19 35 5 67 9 72 10
4 0 7 -3 7 -8z m-1100 -27 c0 -8 -5 -12 -10 -9 -6 4 -8 11 -5 16 9 14 15 11
15 -7z m917 0 c-3 -3 -12 -4 -19 -1 -8 3 -5 6 6 6 11 1 17 -2 13 -5z m1026
-27 c37 -11 67 -24 67 -28 0 -8 -83 14 -137 37 -33 13 -48 32 -15 19 9 -3 47
-16 85 -28z m724 -3 c45 -26 57 -54 23 -54 -24 0 -130 66 -130 82 0 16 57 2
107 -28z m-1962 6 c-84 -17 -115 -15 -115 9 0 3 46 7 103 8 l102 1 -90 -18z
m1084 -34 c77 -33 123 -58 76 -43 -71 24 -185 73 -185 81 0 4 6 6 13 3 6 -3
50 -21 96 -41z m673 13 c29 -6 83 -27 120 -47 54 -29 65 -39 56 -49 -13 -16
-38 -12 -146 23 -64 21 -162 69 -162 80 0 8 80 4 132 -7z m-1797 -29 c10 -11
16 -20 13 -20 -3 0 -13 9 -23 20 -10 11 -16 20 -13 20 3 0 13 -9 23 -20z m423
13 c-10 -2 -28 -2 -40 0 -13 2 -5 4 17 4 22 1 32 -1 23 -4z m-1589 -60 c-1
-65 -5 -61 -12 10 -2 26 -1 47 4 47 5 0 9 -26 8 -57z m1349 30 c-10 -2 -26 -2
-35 0 -10 3 -2 5 17 5 19 0 27 -2 18 -5z m-100 -10 c-16 -2 -28 -10 -28 -17 0
-27 27 -37 87 -32 39 4 53 3 43 -4 -8 -5 -30 -10 -47 -10 -18 0 -33 -3 -33 -7
0 -15 45 -53 62 -53 11 0 17 -4 14 -9 -4 -5 6 -23 20 -40 49 -59 14 -31 -81
65 -52 52 -93 100 -90 105 4 5 23 8 43 8 30 -2 32 -3 10 -6z m435 -20 c-7 -2
-21 -2 -30 0 -10 3 -4 5 12 5 17 0 24 -2 18 -5z m577 -10 c14 -6 50 -22 80
-36 30 -14 70 -30 88 -37 54 -21 30 -22 -29 -1 -88 31 -179 73 -179 83 0 5 3
8 8 6 4 -2 18 -9 32 -15z m-705 -3 c-3 -5 -21 -9 -38 -9 l-32 2 35 7 c19 4 36
8 38 9 2 0 0 -3 -3 -9z m-1500 -106 c-4 -35 -11 -64 -17 -64 -6 0 -8 9 -4 23
4 12 10 49 13 82 4 33 9 51 11 41 2 -10 1 -47 -3 -82z m2933 65 c64 -17 127
-34 139 -36 30 -7 49 -31 36 -44 -23 -23 -218 31 -328 89 l-40 21 38 1 c20 0
90 -14 155 -31z m-2681 -56 c-3 -10 -5 -2 -5 17 0 19 2 27 5 18 2 -10 2 -26 0
-35z m464 -16 c5 -34 2 -78 -8 -127 -13 -68 -30 -117 -37 -108 -2 1 3 46 10
98 7 52 13 119 13 149 1 66 12 60 22 -12z m947 46 c-10 -2 -28 -2 -40 0 -13 2
-5 4 17 4 22 1 32 -1 23 -4z m1022 -18 c25 -3 81 -16 125 -30 44 -13 118 -29
164 -35 136 -18 203 -56 125 -70 -28 -6 -152 14 -279 43 -65 16 -81 21 -167
61 -58 27 -78 50 -35 42 12 -3 42 -7 67 -11z m-464 -16 c21 -11 31 -18 21 -15
-11 4 -30 9 -43 12 -13 3 -24 10 -24 15 0 12 1 12 46 -12z m-2195 -119 c-20
-86 -24 -93 -21 -30 1 39 31 141 37 125 2 -6 -6 -48 -16 -95z m546 63 c-3 -10
-5 -4 -5 12 0 17 2 24 5 18 2 -7 2 -21 0 -30z m988 17 c-3 -5 -11 -10 -16 -10
-6 0 -7 5 -4 10 3 6 11 10 16 10 6 0 7 -4 4 -10z m103 3 c-15 -2 -42 -2 -60 0
-18 2 -6 4 27 4 33 0 48 -2 33 -4z m-151 -9 c-3 -3 -12 -4 -19 -1 -8 3 -5 6 6
6 11 1 17 -2 13 -5z m-983 -92 c-4 -42 -10 -81 -15 -86 -10 -11 -12 80 -3 136
11 66 24 30 18 -50z m113 11 c-6 -71 -33 -153 -50 -153 -5 0 -7 6 -4 14 10 26
27 91 37 149 7 31 14 57 17 57 3 0 3 -30 0 -67z m1117 47 c-11 -11 -214 -29
-220 -19 -2 4 31 10 73 14 43 3 87 7 98 9 44 7 59 6 49 -4z m-1707 -72 c-3 -7
-5 -2 -5 12 0 14 2 19 5 13 2 -7 2 -19 0 -25z m1688 23 c-6 -5 -54 -13 -107
-18 -54 -5 -94 -5 -90 -1 4 4 48 11 97 16 50 5 94 10 100 11 6 1 6 -2 0 -8z
m1263 -62 c54 -11 82 -26 82 -44 0 -25 -45 -22 -144 10 -95 31 -168 64 -161
75 3 4 44 -1 92 -12 49 -11 107 -24 131 -29z m-974 -146 c53 -95 96 -176 96
-180 0 -8 -72 105 -87 137 -4 8 -33 61 -65 117 -55 98 -69 129 -49 108 5 -6
53 -87 105 -182z m-5336 133 c14 -15 18 -26 11 -28 -9 -3 -9 -9 0 -25 12 -24
15 -63 4 -63 -5 0 -19 9 -33 20 -28 22 -40 25 -40 10 0 -6 16 -18 35 -27 19
-9 35 -20 35 -25 0 -11 -11 -9 -40 7 -55 31 -48 15 11 -28 20 -15 35 -57 20
-57 -6 0 -33 13 -60 29 -45 27 -57 29 -128 27 -43 -1 -89 -6 -103 -11 -23 -8
-22 -5 11 32 21 23 40 51 44 63 4 12 12 19 20 16 7 -2 28 6 46 20 18 13 38 24
44 24 6 0 18 9 28 20 23 27 67 25 95 -4z m5115 17 c-7 -2 -21 -2 -30 0 -10 3
-4 5 12 5 17 0 24 -2 18 -5z m-293 -37 c0 -34 29 -40 194 -39 l161 0 -135 -6
c-145 -6 -176 -15 -145 -37 10 -8 17 -16 14 -18 -4 -5 -48 33 -93 82 -23 25
-26 32 -13 32 9 0 17 -6 17 -14z m1365 -62 c28 -8 82 -21 120 -30 78 -18 98
-30 75 -44 -22 -14 -73 -12 -143 6 -68 17 -158 62 -165 81 -4 14 23 11 113
-13z m-2525 -28 c0 -25 -30 -146 -46 -187 -14 -34 -34 -53 -34 -32 0 13 50
167 60 185 5 10 7 24 4 33 -3 8 -1 15 5 15 6 0 11 -6 11 -14z m123 -6 c-3 -11
-7 -20 -9 -20 -2 0 -4 9 -4 20 0 11 4 20 9 20 5 0 7 -9 4 -20z m1387 -10 c-46
-11 -250 -18 -250 -8 0 12 34 16 160 16 85 0 114 -3 90 -8z m-1743 -72 c-2
-13 -4 -3 -4 22 0 25 2 35 4 23 2 -13 2 -33 0 -45z m70 -57 c-1 -49 -5 -87 -9
-84 -14 8 -7 173 7 173 2 0 2 -40 2 -89z m1638 39 c-73 -12 -145 -12 -145 0 0
6 38 9 98 9 85 -2 91 -3 47 -9z m1118 -39 c56 -16 117 -29 136 -29 38 -1 46
-6 36 -22 -5 -8 -35 -10 -104 -5 -94 7 -151 26 -193 63 -20 17 -14 36 8 28 8
-3 60 -19 117 -35z m-6400 15 c25 -19 21 -27 -10 -20 -27 6 -27 6 -8 -9 25
-21 7 -22 -22 -2 -18 13 -22 13 -33 0 -7 -8 -18 -15 -24 -15 -6 0 -19 -9 -29
-20 -19 -23 -37 -26 -37 -7 0 10 18 42 36 66 2 2 23 6 46 8 24 3 45 6 47 9 7
7 15 4 34 -10z m3872 -103 c-9 -32 -27 -92 -40 -133 -13 -42 -26 -92 -30 -113
-9 -46 -25 -49 -25 -4 0 39 19 110 53 197 14 36 30 78 36 94 20 50 25 19 6
-41z m1368 60 c-7 -2 -19 -2 -25 0 -7 3 -2 5 12 5 14 0 19 -2 13 -5z m1582
-55 c-18 -88 -216 -433 -269 -470 -25 -17 -12 8 59 113 68 102 131 218 186
347 22 50 33 55 24 10z m-144 -20 c-15 -44 -103 -188 -114 -188 -5 0 11 37 36
83 25 45 52 97 62 115 20 42 31 35 16 -10z m-2882 -29 c-23 -60 -39 -83 -39
-56 0 32 46 125 56 114 2 -2 -6 -28 -17 -58z m2724 35 c27 -14 28 -17 13 -26
-26 -14 -156 23 -156 45 0 14 105 0 143 -19z m161 -129 c-32 -64 -69 -125 -83
-138 -23 -21 -24 -21 -17 -2 14 39 151 274 154 265 2 -6 -22 -62 -54 -125z
m-251 84 c53 -16 97 -33 97 -38 0 -24 -32 -33 -87 -26 -65 8 -105 25 -145 63
-56 52 -33 52 135 1z m-2516 -97 c-19 -53 -38 -107 -42 -119 -12 -41 -27 -26
-20 19 7 40 20 74 68 182 36 82 32 24 -6 -82z m2974 68 c-5 -31 -28 -76 -73
-145 -36 -55 -73 -113 -81 -130 -25 -47 -150 -208 -165 -213 -18 -6 -2 26 48
93 20 28 61 84 92 125 31 41 84 131 118 198 34 68 63 122 65 120 2 -2 0 -23
-4 -48z m-2885 -6 c-3 -9 -6 -24 -6 -35 0 -10 -4 -19 -10 -19 -11 0 -13 30 -4
54 3 9 11 16 16 16 6 0 7 -7 4 -16z m93 -50 c-11 -25 -13 -26 -16 -8 -2 11 2
34 8 50 11 25 13 26 16 8 2 -11 -2 -34 -8 -50z m1458 40 c-7 -7 -128 -7 -135
1 -3 3 28 5 68 5 40 0 71 -3 67 -6z m-1419 -92 c-17 -45 -34 -79 -39 -76 -9 5
26 104 49 142 26 40 22 18 -10 -66z m2282 21 c47 -18 91 -33 98 -33 8 0 12 -6
10 -12 -6 -18 -84 -22 -122 -7 -55 23 -126 70 -126 85 0 18 26 12 140 -33z
m-857 0 c-13 -2 -35 -2 -50 0 -16 2 -5 4 22 4 28 0 40 -2 28 -4z m-5613 -27
c0 -3 -4 -8 -10 -11 -5 -3 -10 -1 -10 4 0 6 5 11 10 11 6 0 10 -2 10 -4z
m3993 -52 c-10 -28 -19 -42 -21 -32 -3 17 27 92 34 85 2 -2 -4 -26 -13 -53z
m-4048 17 c-3 -12 -11 -19 -16 -16 -5 4 -3 14 3 25 15 24 22 19 13 -9z m6980
2 c-14 -59 -223 -381 -280 -433 l-28 -25 13 25 c22 41 75 120 159 235 45 61
93 136 107 168 29 61 40 74 29 30z m-434 -43 c87 -33 99 -50 37 -50 -53 0
-168 51 -168 75 0 21 28 15 131 -25z m-843 23 c-10 -2 -28 -2 -40 0 -13 2 -5
4 17 4 22 1 32 -1 23 -4z m57 -63 c17 -7 15 -9 -12 -9 -18 -1 -33 4 -33 9 0
12 17 12 45 0z m733 -44 c15 -8 44 -17 64 -21 43 -8 61 -25 48 -45 -7 -11 -23
-6 -84 25 -42 21 -76 42 -76 47 0 12 17 10 48 -6z m453 -63 c-54 -106 -222
-335 -236 -322 -6 6 26 55 125 189 43 58 88 128 100 155 15 32 24 44 27 33 2
-9 -5 -34 -16 -55z m-1174 21 c-3 -3 -12 -4 -19 -1 -8 3 -5 6 6 6 11 1 17 -2
13 -5z m102 -70 c2 -2 -34 -4 -80 -3 -54 1 -75 4 -59 8 23 7 130 3 139 -5z
m729 -41 c6 -19 -53 -16 -69 3 -11 14 -8 15 26 12 21 -2 40 -9 43 -15z m305
-73 c-41 -76 -161 -235 -170 -226 -7 6 29 60 105 159 28 38 52 73 52 79 0 13
33 57 43 58 5 0 -9 -32 -30 -70z m-1025 13 c-21 -2 -55 -2 -75 0 -21 2 -4 4
37 4 41 0 58 -2 38 -4z m736 -62 c9 -15 -19 -20 -59 -11 -55 12 -54 20 3 20
28 0 53 -4 56 -9z m267 -88 c-44 -80 -103 -166 -119 -171 -19 -6 -7 16 58 103
28 39 58 85 66 104 8 19 17 31 20 28 3 -3 -8 -32 -25 -64z m-958 46 c-8 -8
-22 -8 -50 -1 l-38 10 50 1 c36 1 46 -2 38 -10z m615 -26 c39 -3 72 -10 72
-14 0 -16 -52 -15 -137 2 -29 6 -53 15 -53 21 0 6 10 8 23 4 12 -3 55 -9 95
-13z m-641 -59 c-3 -3 -12 -4 -19 -1 -8 3 -5 6 6 6 11 1 17 -2 13 -5z m656 0
c57 -10 45 -27 -14 -19 -27 4 -62 11 -77 15 -25 8 -23 8 13 9 22 0 57 -2 78
-5z m15 -70 c28 -4 52 -11 52 -15 0 -14 -79 -10 -135 5 l-50 14 40 1 c22 0 64
-2 93 -5z m-641 -10 c-3 -3 -12 -4 -19 -1 -8 3 -5 6 6 6 11 1 17 -2 13 -5z
m83 -10 c0 -2 -14 -4 -31 -4 -16 0 -28 4 -25 9 5 8 56 3 56 -5z m589 -65 c11
-7 -6 -8 -54 -4 -38 4 -77 11 -85 17 -10 6 8 7 54 3 38 -3 77 -10 85 -16z
m-576 -26 c-13 -2 -35 -2 -50 0 -16 2 -5 4 22 4 28 0 40 -2 28 -4z m506 -9
c17 -4 31 -11 31 -16 0 -11 -91 0 -104 13 -12 11 27 12 73 3z m-470 -70 c2 -2
-26 -4 -62 -4 -40 0 -67 4 -67 10 0 10 118 4 129 -6z m-16 -73 c15 -1 27 -6
27 -12 0 -8 -17 -10 -57 -5 -66 8 -99 27 -37 22 21 -2 51 -4 67 -5z m-6172
-26 c25 -10 29 -14 13 -15 -11 0 -29 7 -40 15 -25 19 -15 19 27 0z m294 -35
c-28 -12 -57 -12 -50 0 3 6 21 10 38 9 27 0 29 -2 12 -9z m-65 -4 c0 -3 -4 -8
-10 -11 -5 -3 -10 -1 -10 4 0 6 5 11 10 11 6 0 10 -2 10 -4z m-132 -13 c-10
-2 -26 -2 -35 0 -10 3 -2 5 17 5 19 0 27 -2 18 -5z m75 0 c-7 -2 -21 -2 -30 0
-10 3 -4 5 12 5 17 0 24 -2 18 -5z m381 -55 c10 -9 32 -24 50 -32 17 -9 27
-16 22 -16 -5 0 1 -11 13 -24 13 -13 21 -32 18 -43 -3 -15 -6 -14 -15 8 -12
31 -80 91 -128 114 -19 9 -34 20 -34 25 0 12 49 -9 74 -32z m5641 32 c-6 -10
-102 -6 -113 4 -3 3 23 6 57 6 38 0 60 -4 56 -10z m-6335 -64 c0 -6 16 -31 35
-55 19 -24 35 -49 35 -54 0 -14 -71 -87 -83 -87 -5 0 -6 7 -3 16 5 12 1 14
-17 8 l-22 -6 23 24 c12 13 22 28 22 32 0 4 -10 4 -22 0 -22 -6 -22 -6 -5 13
21 24 22 47 2 39 -18 -7 -20 5 -3 22 10 10 10 15 -1 21 -7 5 -11 13 -7 19 3 6
1 12 -5 14 -7 2 -9 13 -4 27 l7 23 24 -23 c13 -12 24 -27 24 -33z m260 4 c0
-5 -7 -10 -15 -10 -8 0 -15 5 -15 10 0 6 7 10 15 10 8 0 15 -4 15 -10z m6078
-17 c-10 -2 -28 -2 -40 0 -13 2 -5 4 17 4 22 1 32 -1 23 -4z m-6023 -43 c-3
-5 -17 -10 -31 -10 -14 0 -22 4 -19 10 3 6 17 10 31 10 14 0 22 -4 19 -10z
m65 -20 c-8 -5 -26 -9 -40 -9 l-25 1 25 8 c14 4 32 8 40 9 13 1 13 0 0 -9z
m906 -88 c-6 -6 -23 36 -31 76 -3 15 4 5 15 -22 11 -27 18 -51 16 -54z m-876
78 c0 -5 -5 -10 -11 -10 -5 0 -7 5 -4 10 3 6 8 10 11 10 2 0 4 -4 4 -10z m45
0 c-3 -5 -14 -10 -23 -10 -15 0 -15 2 -2 10 20 13 33 13 25 0z m244 1 c9 -6 1
-10 -25 -13 -48 -6 -77 2 -48 13 26 10 56 10 73 0z m61 -1 c0 -5 -7 -10 -16
-10 -8 0 -12 5 -9 10 3 6 10 10 16 10 5 0 9 -4 9 -10z m137 4 c-3 -3 -12 -4
-19 -1 -8 3 -5 6 6 6 11 1 17 -2 13 -5z m5471 -1 c-15 -2 -42 -2 -60 0 -18 2
-6 4 27 4 33 0 48 -2 33 -4z m-6336 -125 c-17 -18 -34 -29 -38 -25 -3 3 9 20
27 36 43 40 53 30 11 -11z m6383 33 c-6 -5 -30 -5 -55 -1 l-45 7 55 2 c32 0
50 -3 45 -8z m-5080 -66 c22 -40 23 -46 7 -30 -11 11 -28 38 -37 60 -20 49 -8
37 30 -30z m-1300 -4 c-3 -6 -16 -16 -28 -22 -21 -11 -21 -10 2 15 23 25 40
29 26 7z m6368 -8 c-7 -2 -19 -2 -25 0 -7 3 -2 5 12 5 14 0 19 -2 13 -5z
m-6385 -90 c-21 -20 -40 -34 -43 -31 -8 7 53 68 68 68 6 0 -5 -17 -25 -37z
m189 17 c-30 -24 -38 -25 -31 -6 5 13 21 21 48 25 5 0 -3 -8 -17 -19z m-12
-50 c-21 -24 -35 -26 -35 -6 0 8 10 17 23 19 12 2 24 5 26 6 2 0 -4 -8 -14
-19z m-157 -25 c-15 -14 -30 -25 -33 -25 -3 0 2 11 11 25 9 14 24 25 33 25 12
0 9 -6 -11 -25z m165 -30 c-26 -12 -52 -20 -56 -18 -10 6 41 39 69 45 40 9 33
-5 -13 -27z m-143 -18 c0 -2 -12 -14 -26 -28 l-27 -24 18 28 c14 22 35 36 35
24z m192 -9 c-10 -10 -54 -29 -104 -45 -10 -3 -18 0 -18 6 0 6 6 11 14 11 7 0
19 6 26 14 10 13 31 20 80 25 11 1 11 -2 2 -11z m1243 -8 c3 -5 1 -10 -4 -10
-6 0 -11 5 -11 10 0 6 2 10 4 10 3 0 8 -4 11 -10z m4124 -174 c-12 -13 -26 2
-35 39 l-7 30 26 -30 c16 -19 22 -34 16 -39z m-3979 19 c7 -8 8 -15 2 -15 -5
0 -15 7 -22 15 -7 8 -8 15 -2 15 5 0 15 -7 22 -15z m3979 -45 c4 0 22 -21 40
-47 19 -27 25 -40 14 -30 -11 9 -22 17 -26 17 -10 0 4 -33 25 -56 15 -16 16
-23 6 -26 -9 -3 -8 -12 7 -34 11 -16 18 -34 17 -39 -1 -6 12 -26 28 -45 36
-42 40 -63 5 -30 -40 37 -41 15 -1 -26 42 -43 44 -48 14 -38 -21 6 -21 4 6
-24 22 -24 26 -34 18 -45 -8 -10 -6 -20 8 -42 11 -17 20 -41 20 -55 0 -14 7
-34 15 -44 10 -14 15 -45 15 -96 0 -82 -16 -313 -26 -369 -4 -25 -2 -32 8 -29
9 3 17 45 25 133 14 146 37 231 28 105 -3 -41 -10 -114 -17 -162 -12 -100 9
-87 -183 -113 -195 -26 -289 -44 -500 -97 -262 -66 -322 -89 -602 -228 -84
-42 -153 -73 -153 -70 0 5 81 167 105 210 7 14 26 51 41 82 15 32 37 67 50 79
15 14 24 34 24 53 0 28 -5 22 -47 -49 -59 -102 -218 -314 -227 -304 -3 2 9 24
26 49 17 25 76 117 131 205 55 88 106 171 114 183 19 31 27 23 13 -13 -14 -38
2 -56 43 -49 143 26 198 48 281 116 81 66 165 111 256 138 108 32 121 44 170
160 23 55 50 110 59 123 29 38 80 169 90 232 5 33 12 96 16 140 3 44 11 85 16
92 6 7 8 17 4 23 -9 15 5 32 22 26 8 -3 18 -6 22 -6z m-378 -93 c-35 -34 -60
-55 -56 -47 11 21 109 117 115 113 2 -2 -24 -32 -59 -66z m78 -14 c-31 -36
-79 -83 -110 -108 -13 -10 10 15 51 58 73 75 107 104 59 50z m-4834 -78 c-43
-26 -55 -30 -55 -17 0 10 59 40 80 41 8 1 -3 -10 -25 -24z m95 0 c-7 -8 -18
-15 -24 -15 -6 0 -2 7 8 15 25 19 32 19 16 0z m115 -45 c-3 -5 -14 -10 -23
-10 -15 0 -15 2 -2 10 20 13 33 13 25 0z m95 -10 c0 -5 -4 -10 -10 -10 -5 0
-10 5 -10 10 0 6 5 10 10 10 6 0 10 -4 10 -10z m4437 -68 c-31 -31 -57 -53
-57 -49 0 13 102 118 109 112 3 -3 -21 -31 -52 -63z m-4380 52 c-3 -3 -12 -4
-19 -1 -8 3 -5 6 6 6 11 1 17 -2 13 -5z m623 -125 c0 -5 -13 6 -30 24 -16 19
-30 39 -30 43 1 12 60 -54 60 -67z m3774 -11 c-61 -65 -114 -113 -114 -104 0
6 163 166 169 166 2 0 -22 -28 -55 -62z m-28 -127 c-4 -5 -30 -28 -59 -52
l-52 -43 50 52 c43 46 77 69 61 43z m-3548 -121 c18 -21 29 -41 25 -43 -13 -8
-57 36 -75 76 -22 47 -22 59 0 29 9 -13 32 -41 50 -62z m3532 17 c0 -2 -10
-12 -22 -23 l-23 -19 19 23 c18 21 26 27 26 19z m-55 -57 c-3 -5 -20 -19 -38
-30 l-32 -22 33 31 c32 30 49 40 37 21z m-4724 -236 l-9 -39 -1 50 c-1 33 2
46 9 39 7 -7 7 -24 1 -50z m119 -4 l-11 -25 6 25 c2 14 5 34 6 45 2 19 2 19 6
0 2 -12 -1 -32 -7 -45z m4066 -17 c-14 -57 -200 -353 -222 -353 -6 0 -17 -19
111 198 59 100 109 182 112 182 3 0 2 -12 -1 -27z m-4338 -138 c0 -13 -5 -7
-13 15 -7 19 -13 44 -13 55 0 13 5 7 13 -15 7 -19 13 -44 13 -55z m5502 -87
c0 -27 -35 -88 -50 -88 -13 0 -13 67 0 75 5 3 7 12 3 20 -4 11 2 15 21 15 20
0 26 -5 26 -22z m-70 -8 c0 -27 -27 -80 -41 -80 -7 0 -8 14 -4 40 4 26 3 40
-4 40 -6 0 -11 -7 -11 -15 0 -9 -6 -12 -17 -8 -13 5 -15 2 -10 -11 5 -11 -1
-32 -15 -55 -28 -45 -35 -24 -15 46 13 43 18 49 48 54 62 11 69 10 69 -11z
m-143 -35 c-5 -19 -23 -49 -39 -67 l-28 -33 6 37 c10 63 10 73 -5 73 -8 0 -19
-13 -24 -30 -6 -16 -25 -52 -44 -79 -18 -26 -33 -53 -33 -59 0 -6 -2 -8 -4 -6
-2 2 2 35 9 74 7 38 12 72 9 76 -2 3 -15 4 -30 1 -18 -3 -31 -15 -41 -41 -8
-20 -21 -51 -29 -70 -19 -46 -25 -36 -15 27 7 47 6 52 -11 52 -13 0 -26 -17
-43 -57 -44 -102 -45 -103 -39 -30 l6 68 -28 -7 c-16 -4 -31 -8 -34 -9 -3 -2
-16 -33 -30 -69 -13 -36 -28 -66 -33 -66 -5 0 -6 8 -4 18 13 47 17 92 8 92 -6
0 -21 -5 -35 -12 -19 -8 -23 -15 -16 -23 7 -8 2 -32 -14 -76 -21 -52 -25 -59
-25 -34 -1 17 6 43 14 58 13 25 13 31 1 43 -19 19 -36 17 -66 -6 -27 -21 -40
-25 -40 -12 0 15 144 71 278 108 30 8 61 18 70 23 9 4 50 16 91 26 69 17 75
17 86 1 16 -21 25 -20 25 4 0 19 10 24 70 33 50 8 49 9 37 -28z m363 21 c0 -7
-7 -19 -15 -26 -16 -13 -20 -3 -9 24 8 20 24 21 24 2z m-123 -36 c-11 -19 -27
-27 -27 -14 0 15 22 44 30 39 6 -4 5 -14 -3 -25z m49 -7 c-10 -10 -19 5 -10
18 6 11 8 11 12 0 2 -7 1 -15 -2 -18z m-5589 -115 c-3 -7 -5 -2 -5 12 0 14 2
19 5 13 2 -7 2 -19 0 -25z m-11 -190 l-1 -173 41 -82 c43 -86 43 -107 0 -50
-31 41 -66 165 -66 237 0 44 21 240 26 240 0 0 0 -78 0 -172z m4609 137 c-20
-15 -40 -24 -42 -21 -6 5 57 46 71 46 5 0 -8 -11 -29 -25z m60 -36 c-19 -36
-29 -33 -19 5 3 14 13 26 20 26 12 0 12 -5 -1 -31z m516 -100 c-16 -52 -35
-121 -41 -154 -6 -33 -16 -73 -21 -90 -5 -16 -25 -91 -45 -165 -20 -74 -49
-175 -64 -225 -16 -49 -41 -133 -55 -185 -15 -52 -33 -113 -40 -135 -7 -23
-18 -70 -25 -105 -14 -84 -20 -101 -29 -95 -11 6 3 91 34 206 13 52 41 162 61
244 61 252 122 476 152 565 38 109 96 250 100 240 1 -4 -11 -50 -27 -101z
m-612 55 c-9 -22 -13 -25 -16 -12 -5 19 18 69 24 52 2 -6 -2 -24 -8 -40z m546
29 c-27 -72 -102 -323 -145 -489 -77 -296 -104 -397 -139 -519 -17 -60 -37
-137 -43 -170 l-13 -60 -3 50 c-1 28 4 82 13 120 8 39 26 131 40 205 32 176
63 277 254 807 14 40 30 73 35 73 4 0 5 -8 1 -17z m251 0 c-4 -9 -22 -94 -41
-187 -19 -94 -50 -229 -69 -301 -66 -249 -166 -597 -177 -617 -15 -29 -24 -14
-11 19 15 36 42 156 37 161 -2 2 -13 -29 -25 -70 -20 -66 -40 -108 -40 -82 0
22 72 298 115 442 25 84 59 214 75 290 28 127 48 197 56 190 1 -2 -1 -21 -7
-43 -5 -22 -18 -89 -30 -150 -11 -60 -27 -134 -35 -163 -9 -29 -14 -58 -12
-64 5 -15 63 205 78 297 15 97 74 295 87 295 3 0 2 -8 -1 -17z m-878 -5 c-3
-7 -13 -15 -24 -17 -16 -3 -17 -1 -5 13 16 19 34 21 29 4z m773 -65 c-40 -131
-100 -349 -116 -423 -9 -41 -31 -124 -50 -185 -18 -60 -51 -173 -74 -250 -23
-77 -46 -149 -51 -160 -8 -20 -9 -20 -9 1 -1 28 40 193 84 339 20 65 42 143
50 174 70 282 168 591 182 577 3 -2 -5 -35 -16 -73z m-261 -5 c-10 -40 -36
-131 -58 -203 -63 -203 -129 -435 -142 -495 -7 -30 -27 -118 -45 -195 -18 -77
-41 -194 -52 -260 l-18 -120 -3 85 c-2 51 3 111 12 150 8 36 25 110 36 165 46
220 70 303 170 605 21 63 52 166 70 228 36 124 57 153 30 40z m-1161 36 c-24
-26 -111 -89 -181 -133 -63 -38 -42 -15 30 33 37 25 90 63 117 85 59 47 68 51
34 15z m631 -16 c0 -17 -18 -44 -24 -37 -8 7 5 49 15 49 5 0 9 -6 9 -12z
m-105 -22 c-2 -13 -8 -33 -14 -43 -9 -15 -10 -14 -11 14 l0 32 -42 -22 c-34
-18 -44 -29 -51 -59 -11 -47 -22 -49 -22 -4 0 32 5 37 65 70 36 20 68 36 71
36 3 0 5 -11 4 -24z m545 -3 c-4 -16 -20 -80 -35 -143 -33 -143 -72 -280 -136
-480 -60 -188 -117 -415 -134 -530 -27 -187 -41 -200 -24 -24 17 186 48 341
99 494 30 90 97 305 145 470 25 85 53 174 62 198 17 46 37 59 23 15z m587 5
c-3 -8 -6 -5 -6 6 -1 11 2 17 5 13 3 -3 4 -12 1 -19z m-706 -94 c-11 -43 -31
-135 -45 -204 -31 -146 -62 -260 -106 -385 -41 -119 -100 -326 -111 -395 -14
-86 -50 -242 -56 -237 -5 6 34 269 47 312 4 17 18 75 30 130 22 103 54 216 96
340 13 39 40 133 59 210 33 127 81 287 92 308 13 23 11 -7 -6 -79z m646 54
c-3 -8 -6 -5 -6 6 -1 11 2 17 5 13 3 -3 4 -12 1 -19z m47 -22 c-3 -21 -8 -35
-11 -32 -2 2 -1 20 3 40 3 21 8 35 11 32 2 -2 1 -20 -3 -40z m-1279 -6 c-3 -5
-12 -10 -18 -10 -7 0 -6 4 3 10 19 12 23 12 15 0z m1222 -12 c-3 -8 -6 -5 -6
6 -1 11 2 17 5 13 3 -3 4 -12 1 -19z m-742 -90 c-28 -153 -71 -326 -114 -453
-21 -66 -49 -156 -61 -200 -12 -44 -35 -120 -52 -170 -16 -49 -33 -128 -38
-175 -5 -47 -16 -105 -23 -130 -14 -45 -14 -44 -10 44 4 110 29 226 97 454 29
97 65 224 81 282 82 313 124 454 132 446 3 -3 -2 -47 -12 -98z m866 1 c-38
-183 -178 -655 -180 -606 -1 10 22 95 50 190 28 95 69 244 91 332 47 189 47
189 53 183 3 -3 -4 -47 -14 -99z m-179 -11 c-12 -46 -28 -112 -36 -148 -8 -36
-26 -105 -40 -155 -14 -49 -34 -122 -45 -161 -40 -147 -64 -221 -88 -279 -14
-33 -29 -71 -34 -84 -5 -13 -12 -21 -15 -19 -2 3 4 30 15 59 31 84 150 497
196 679 33 132 55 203 62 196 3 -3 -4 -43 -15 -88z m-1230 70 c-7 -7 -12 -21
-13 -32 -1 -18 -2 -17 -8 4 -9 30 -5 40 17 40 12 0 13 -3 4 -12z m468 -30
c-28 -148 -35 -180 -56 -243 -12 -39 -27 -99 -34 -134 -6 -35 -24 -103 -40
-150 -63 -190 -135 -448 -171 -611 -33 -148 -39 -165 -33 -85 5 77 34 216 96
460 48 188 69 276 110 444 16 68 36 138 43 155 8 17 29 70 47 118 18 49 36 88
39 88 4 0 3 -19 -1 -42z m805 10 c-3 -13 -16 -68 -29 -123 -13 -55 -38 -154
-56 -220 -18 -66 -38 -145 -45 -175 -25 -108 -103 -345 -111 -337 -2 1 10 48
27 102 30 97 167 617 191 723 7 28 16 52 20 52 5 0 6 -10 3 -22z m76 -88 c-30
-139 -53 -231 -58 -227 -4 5 18 125 38 202 26 103 31 117 34 113 2 -1 -5 -41
-14 -88z m-1911 76 c0 -2 -44 -30 -97 -61 -54 -32 -109 -65 -122 -74 -16 -10
-23 -11 -20 -3 2 7 54 41 114 76 105 61 125 71 125 62z m472 -9 c-47 -27 -96
-177 -138 -427 -13 -79 -47 -199 -83 -295 -5 -11 -18 -63 -30 -115 -13 -52
-27 -108 -32 -125 -4 -16 -23 -82 -40 -145 -17 -63 -37 -135 -45 -158 -7 -24
-23 -105 -35 -180 -22 -148 -37 -202 -38 -144 -1 19 -5 31 -11 27 -5 -3 -10
-3 -10 2 0 25 65 312 99 436 45 166 61 228 99 387 57 235 163 597 200 679 19
40 51 70 77 70 6 0 0 -5 -13 -12z m1518 -163 c-43 -178 -78 -294 -130 -434
-18 -47 -39 -107 -47 -133 -8 -27 -17 -46 -20 -43 -9 9 17 97 63 211 24 61 64
190 88 288 48 187 77 289 83 283 2 -2 -15 -79 -37 -172z m-134 51 c-13 -55
-33 -138 -45 -185 -27 -109 -144 -447 -149 -432 -2 6 21 89 51 184 31 95 68
216 82 268 15 52 36 122 45 155 10 33 22 76 26 95 4 19 9 31 10 25 2 -5 -7
-55 -20 -110z m-941 51 c-7 -29 -22 -86 -34 -127 -12 -41 -46 -175 -76 -299
-30 -124 -66 -258 -80 -298 -14 -41 -25 -80 -25 -88 0 -7 -16 -60 -35 -116
-20 -57 -44 -145 -55 -196 -19 -93 -25 -110 -35 -100 -10 10 34 209 78 357 48
159 82 290 101 391 24 121 154 530 169 530 2 0 -1 -24 -8 -54z m-505 29 c0 -2
-13 -11 -30 -20 -38 -19 -40 -11 -2 9 31 17 32 18 32 11z m294 -70 c-9 -39
-22 -95 -29 -125 -21 -91 -254 -940 -275 -1005 -11 -34 -29 -119 -39 -190 -10
-72 -28 -155 -39 -185 -73 -203 -94 -255 -103 -265 -21 -19 0 59 41 155 46
105 56 140 75 265 26 163 36 206 91 399 30 105 64 236 74 291 11 55 36 159 56
230 19 72 44 162 54 202 18 65 69 222 91 282 17 44 18 16 3 -54z m-376 8 c-7
-16 -15 -32 -19 -38 -3 -5 -12 -28 -19 -50 -7 -22 -16 -44 -20 -50 -5 -5 -14
-30 -20 -55 -7 -25 -15 -40 -17 -34 -2 6 12 56 32 110 22 62 31 100 24 103 -8
2 30 34 48 40 2 1 -3 -11 -9 -26z m451 -90 c-111 -458 -216 -851 -248 -925
-11 -26 -32 -93 -48 -150 -21 -76 -29 -95 -31 -73 -3 31 6 69 53 225 34 113
119 439 160 620 18 80 47 186 64 235 29 88 69 185 75 185 2 0 -10 -53 -25
-117z m-4274 97 c3 -5 1 -10 -4 -10 -6 0 -11 5 -11 10 0 6 2 10 4 10 3 0 8 -4
11 -10z m5520 -177 c-34 -135 -123 -398 -132 -390 -2 2 12 58 32 123 19 65 51
175 71 244 41 142 55 183 61 176 3 -3 -12 -71 -32 -153z m-1450 40 c-15 -43
-78 -280 -91 -343 -22 -101 -99 -407 -129 -510 -56 -189 -73 -262 -95 -415
-17 -111 -32 -167 -71 -270 -27 -71 -54 -134 -60 -140 -15 -13 -5 20 28 100
44 108 64 179 68 244 7 114 17 175 47 271 16 52 35 131 43 175 58 322 145 644
230 855 8 19 19 48 25 64 6 16 13 26 16 23 4 -3 -1 -28 -11 -54z m-89 -14
c-46 -170 -58 -208 -76 -242 -11 -22 -20 -50 -20 -65 0 -25 -9 -60 -56 -218
-13 -44 -24 -87 -24 -94 0 -8 -9 -44 -20 -80 -36 -120 -99 -394 -115 -500 -19
-128 -31 -184 -56 -275 -28 -96 -80 -234 -92 -242 -16 -10 -1 50 32 125 41 95
83 266 83 337 0 39 20 142 58 295 32 129 70 289 85 355 15 66 31 133 36 149 5
16 14 58 19 92 13 80 143 434 156 422 3 -3 -1 -30 -10 -59z m-3459 15 c37 -8
73 -20 78 -26 17 -18 -89 -1 -137 21 -52 25 -32 26 59 5z m442 12 c-11 -11
-213 -56 -246 -55 -50 1 -40 4 97 33 110 23 158 31 149 22z m2701 -3 c0 -9
-81 -173 -86 -173 -5 0 31 100 52 143 16 33 34 49 34 30z m-1552 -28 c-4 -4
-249 -51 -303 -59 -5 0 -12 4 -15 9 -3 6 27 15 70 22 208 32 258 37 248 28z
m3476 -42 c-3 -16 -32 -107 -65 -203 -32 -96 -75 -238 -94 -315 -45 -172 -97
-334 -102 -319 -5 15 95 382 145 534 21 63 54 163 73 222 19 59 37 108 42 108
4 0 5 -12 1 -27z m-2146 -90 c-67 -64 -140 -128 -173 -152 -25 -18 57 63 154
152 41 37 76 66 78 64 2 -3 -24 -31 -59 -64z m1862 -79 c-11 -33 -38 -119 -60
-192 -53 -179 -73 -213 -39 -67 13 53 111 326 116 321 2 -2 -5 -30 -17 -62z
m-1760 -160 c-28 -263 -58 -410 -123 -604 -36 -107 -108 -369 -151 -550 -43
-178 -95 -361 -107 -374 -5 -6 -9 -7 -9 -3 0 20 74 339 96 416 14 47 45 163
69 256 24 94 52 204 64 245 22 80 59 263 90 450 19 107 82 362 89 356 1 -2 -6
-88 -18 -192z m147 174 c-3 -8 -6 -5 -6 6 -1 11 2 17 5 13 3 -3 4 -12 1 -19z
m1955 -85 c-11 -37 -37 -126 -57 -198 -82 -289 -92 -321 -101 -313 -9 9 51
229 132 487 40 126 61 146 26 24z m-3106 52 c-11 -8 -25 -15 -30 -15 -6 0 -2
7 8 15 11 8 25 15 30 15 6 0 2 -7 -8 -15z m1141 -22 c-20 -128 -119 -600 -151
-713 -62 -223 -86 -323 -105 -436 -35 -206 -62 -345 -72 -367 -15 -34 -1 94
16 151 8 26 17 76 21 112 10 114 54 348 90 484 54 199 99 384 139 566 45 203
54 240 62 240 3 0 3 -17 0 -37z m1869 -89 c-18 -65 -53 -195 -76 -289 -23 -93
-47 -174 -52 -180 -24 -23 24 185 98 425 54 176 53 174 59 168 3 -3 -10 -59
-29 -124z m-2131 -52 c-15 -70 -33 -147 -40 -172 -7 -25 -23 -94 -35 -155 -11
-60 -35 -166 -51 -235 -17 -69 -41 -184 -54 -255 -13 -72 -48 -225 -79 -340
-30 -116 -62 -243 -71 -282 -9 -40 -21 -75 -26 -78 -5 -4 -9 -3 -9 2 0 26 55
285 93 443 25 102 55 235 66 295 31 159 36 180 86 395 88 374 137 557 143 527
2 -10 -8 -75 -23 -145z m-2425 128 c-20 -14 -167 -60 -188 -60 -19 0 165 68
188 69 13 1 13 0 0 -9z m2311 -201 c-34 -138 -53 -233 -95 -484 -3 -16 -10
-59 -15 -95 -6 -36 -17 -90 -26 -120 -24 -90 -82 -334 -115 -490 -62 -282 -72
-325 -81 -334 -6 -6 -9 -3 -9 7 0 34 72 377 125 594 30 121 59 259 64 305 5
46 16 112 25 148 20 85 43 203 62 314 8 49 22 112 30 140 79 256 96 263 35 15z
m169 149 c-5 -13 -25 -111 -45 -218 -77 -420 -100 -534 -113 -549 -12 -14 -12
-14 -8 4 3 11 14 90 26 175 34 251 119 610 145 610 2 0 0 -10 -5 -22z m-2690
-12 c0 -2 -9 -6 -20 -9 -11 -3 -20 -1 -20 4 0 5 9 9 20 9 11 0 20 -2 20 -4z
m2444 -112 c-54 -161 -71 -184 -33 -47 21 75 59 166 66 159 2 -2 -12 -53 -33
-112z m-2507 100 c-3 -3 -12 -4 -19 -1 -8 3 -5 6 6 6 11 1 17 -2 13 -5z m4988
-44 c-22 -99 -120 -359 -131 -347 -6 5 126 377 134 377 2 0 1 -13 -3 -30z
m-2525 17 c0 -4 -56 -167 -65 -189 -11 -26 -28 -22 -19 5 25 82 67 187 75 187
5 0 9 -1 9 -3z m-115 -148 c-15 -38 -30 -69 -35 -69 -9 0 9 65 35 125 29 67
29 18 0 -56z m2306 60 c-5 -13 -10 -19 -10 -12 -1 15 10 45 15 40 3 -2 0 -15
-5 -28z m-3526 -17 c-34 -21 -65 -33 -65 -27 0 6 72 44 85 45 6 0 -3 -8 -20
-18z m3856 -63 c-17 -71 -50 -149 -51 -121 0 16 61 204 66 200 2 -2 -5 -38
-15 -79z m-380 -115 c-41 -168 -59 -225 -60 -189 -1 50 84 363 96 352 2 -2
-14 -75 -36 -163z m-2331 111 c-13 -38 -66 -135 -56 -100 11 34 61 143 64 140
2 -2 -1 -20 -8 -40z m-1230 25 c-8 -5 -19 -10 -25 -10 -5 0 -3 5 5 10 8 5 20
10 25 10 6 0 3 -5 -5 -10z m1136 -104 c-25 -55 -44 -77 -30 -33 16 49 47 111
51 101 2 -6 -7 -37 -21 -68z m-63 -3 c-22 -55 -34 -75 -39 -70 -6 5 43 107 51
107 2 0 -3 -17 -12 -37z m2097 0 c-16 -53 -32 -94 -36 -90 -6 6 28 117 37 117
4 0 4 -12 -1 -27z m-2190 -72 c-11 -23 -23 -41 -26 -41 -3 0 -3 3 -1 8 2 4 12
24 21 45 10 21 20 36 23 34 2 -3 -5 -23 -17 -46z m2221 -12 c-6 -16 -10 -18
-10 -7 -1 22 12 55 16 42 2 -6 -1 -22 -6 -35z m254 -95 c-15 -54 -32 -108 -38
-119 -18 -33 -20 1 -3 52 8 27 22 77 31 113 21 86 27 101 32 74 2 -11 -8 -65
-22 -120z m-2559 74 c-14 -24 -26 -39 -26 -35 0 15 41 89 47 84 3 -3 -7 -25
-21 -49z m-73 -29 c-10 -17 -24 -36 -32 -42 -8 -7 -2 7 14 31 32 49 45 57 18
11z m2527 -96 c-20 -72 -37 -109 -46 -100 -2 2 7 42 21 88 32 107 36 117 42
102 2 -7 -5 -47 -17 -90z m-2635 35 c-19 -48 -56 -110 -62 -105 -9 9 66 151
75 143 1 -2 -4 -19 -13 -38z m2561 -25 c-3 -10 -12 -45 -22 -78 -9 -33 -20
-64 -25 -69 -12 -13 -11 -2 1 43 5 20 14 55 20 79 6 23 15 42 21 42 6 0 8 -8
5 -17z m-2663 -10 c-17 -43 -55 -115 -59 -111 -5 6 32 96 48 115 14 18 19 16
11 -4z m-73 4 c0 -7 -95 -65 -210 -129 -115 -64 -150 -81 -150 -73 0 3 160 94
235 133 17 9 50 28 74 44 45 28 51 31 51 25z m2631 -113 c-23 -65 -47 -98 -35
-49 13 57 48 140 52 124 1 -9 -6 -43 -17 -75z m-2680 10 c-31 -62 -42 -59 -16
3 17 40 35 66 42 59 2 -2 -9 -30 -26 -62z m786 34 c-3 -8 -6 -5 -6 6 -1 11 2
17 5 13 3 -3 4 -12 1 -19z m1812 -86 c-13 -37 -25 -59 -27 -49 -2 9 7 48 19
85 13 37 25 59 27 49 2 -9 -7 -48 -19 -85z m-2669 18 c-7 -16 -16 -30 -21 -30
-5 0 -1 16 8 35 20 42 31 38 13 -5z m2600 -41 c-24 -73 -44 -102 -29 -43 12
47 41 116 46 110 2 -2 -6 -32 -17 -67z m-40 22 c0 -22 -53 -151 -62 -151 -6 0
-7 8 -3 18 4 9 16 45 26 80 11 34 24 62 29 62 6 0 10 -4 10 -9z m-2740 -91
c-11 -22 -22 -40 -25 -40 -7 0 14 52 27 67 19 24 19 13 -2 -27z m2596 -2 c-7
-24 -20 -56 -30 -73 l-17 -30 7 35 c9 47 34 110 45 110 4 0 2 -19 -5 -42z m49
-7 c-17 -51 -35 -84 -41 -78 -7 7 36 117 46 117 5 0 3 -18 -5 -39z m-2765 15
c0 -3 -4 -8 -10 -11 -5 -3 -10 -1 -10 4 0 6 5 11 10 11 6 0 10 -2 10 -4z
m2566 -37 c-7 -43 -45 -125 -46 -98 0 19 40 139 47 139 3 0 3 -18 -1 -41z
m-2526 0 c-7 -11 -14 -18 -17 -15 -3 3 0 12 7 21 18 21 23 19 10 -6z m2585
-45 l-15 -39 6 40 c6 44 16 65 21 49 2 -6 -4 -28 -12 -50z m-568 24 c-3 -8 -6
-5 -6 6 -1 11 2 17 5 13 3 -3 4 -12 1 -19z m279 -45 c-10 -32 -27 -88 -38
-125 -12 -37 -27 -73 -35 -80 -12 -10 -13 -7 -7 18 4 16 16 52 26 79 11 28 29
79 40 113 11 35 22 61 25 58 3 -3 -2 -32 -11 -63z m-2373 42 c-3 -9 -8 -14
-10 -11 -3 3 -2 9 2 15 9 16 15 13 8 -4z m2494 -76 c-44 -113 -47 -122 -52
-118 -8 8 16 94 43 154 34 76 41 48 9 -36z m-74 -12 c-27 -90 -48 -119 -32
-45 11 46 50 141 56 135 2 -2 -9 -43 -24 -90z m-214 -81 c-29 -86 -55 -156
-60 -156 -8 0 14 82 54 195 37 105 47 128 53 123 2 -3 -19 -76 -47 -162z
m-3359 129 c-7 -9 -15 -13 -17 -11 -7 7 7 26 19 26 6 0 6 -6 -2 -15z m37 -63
c-13 -14 -23 -19 -25 -12 -3 7 1 17 7 23 6 6 11 17 11 25 0 10 -3 10 -16 -2
-19 -19 -28 -21 -18 -3 20 35 26 37 44 14 18 -21 18 -23 -3 -45z m3420 46 c-3
-8 -6 -5 -6 6 -1 11 2 17 5 13 3 -3 4 -12 1 -19z m-147 -45 c-6 -28 -18 -59
-26 -69 -14 -18 -15 -18 -10 -1 3 10 13 43 22 73 19 68 28 66 14 -3z m-3228
-35 c-8 -8 -9 -4 -5 13 4 13 8 18 11 10 2 -7 -1 -18 -6 -23z m3336 -55 c-22
-75 -37 -107 -45 -99 -10 10 48 166 62 166 2 0 -6 -30 -17 -67z m-3303 38 c-3
-6 -11 -11 -17 -11 -6 0 -6 6 2 15 14 17 26 13 15 -4z m3085 -92 c-23 -52 -48
-113 -57 -137 -8 -23 -19 -40 -23 -37 -12 7 18 90 70 200 56 116 63 96 10 -26z
m-3063 54 c-21 -22 -32 -11 -15 16 8 13 16 17 22 11 7 -7 4 -16 -7 -27z m2738
-15 c-12 -72 -133 -418 -147 -418 -9 0 15 83 57 190 18 47 40 112 50 145 33
114 37 125 42 125 2 0 2 -19 -2 -42z m-2750 -46 c-22 -21 -57 -57 -77 -81 -21
-25 -40 -42 -43 -40 -2 3 30 42 72 87 41 46 78 80 81 77 4 -3 -11 -23 -33 -43z
m2505 -212 c-24 -124 -48 -208 -61 -215 -12 -8 -12 -9 11 87 11 46 24 124 29
173 5 50 16 115 23 145 l13 55 3 -72 c2 -43 -5 -111 -18 -173z m615 160 c-9
-28 -21 -50 -27 -50 -6 0 -8 6 -6 13 3 6 13 37 24 67 10 32 20 48 22 37 2 -9
-4 -40 -13 -67z m-3127 3 c-46 -50 -113 -145 -142 -200 -9 -18 -54 -79 -99
-135 -45 -57 -99 -125 -119 -153 -20 -27 -49 -61 -64 -75 l-28 -25 27 35 c58
73 235 319 292 404 58 87 152 196 169 196 5 0 -11 -21 -36 -47z m267 -100 c-9
-15 -13 -19 -10 -8 4 11 10 29 13 40 3 11 7 14 9 8 3 -7 -3 -24 -12 -40z
m-473 -5 c-9 -9 -12 -7 -12 12 0 19 3 21 12 12 9 -9 9 -15 0 -24z m8 -42 c0
-7 -6 -19 -14 -25 -11 -9 -12 -6 -8 14 5 26 22 35 22 11z m109 -28 c-6 -13
-28 -45 -48 -73 -20 -27 -45 -63 -54 -78 -21 -33 -41 -58 -80 -101 -39 -42
-23 -14 33 59 25 33 59 80 75 105 33 49 78 110 83 110 1 0 -3 -10 -9 -22z
m-251 -342 c-24 -29 -45 -52 -47 -50 -4 3 59 85 74 96 20 15 15 7 -27 -46z
m2417 -28 c-10 -46 -41 -104 -60 -111 -8 -4 -15 -2 -15 4 0 19 66 139 77 139
2 0 1 -15 -2 -32z m-105 -73 c-28 -74 -61 -111 -46 -52 5 22 42 77 51 77 3 0
0 -11 -5 -25z m-76 -48 c-20 -35 -47 -68 -51 -63 -8 8 39 86 49 80 4 -3 5 -11
2 -17z m-83 -34 c-10 -21 -26 -47 -35 -58 -29 -38 -18 8 15 59 35 56 50 56 20
-1z m-86 -68 c-15 -25 -31 -45 -36 -45 -14 0 -11 9 23 62 40 61 50 47 13 -17z
m-45 33 c0 -21 -63 -124 -67 -111 -5 14 23 80 45 106 18 20 22 21 22 5z m-101
-96 c-12 -29 -26 -52 -30 -52 -5 0 -9 2 -9 4 0 9 33 82 42 94 20 23 18 5 -3
-46z m-49 3 c-16 -41 -39 -83 -50 -90 -9 -5 21 83 36 107 12 19 23 6 14 -17z
m-60 -22 c-1 -5 -17 -37 -36 -73 -19 -36 -33 -57 -30 -48 3 9 10 36 16 60 7
24 17 49 22 56 11 13 28 16 28 5z m-97 -75 c-17 -46 -33 -70 -33 -50 0 20 32
92 41 92 5 0 1 -19 -8 -42z m-69 -54 c-14 -33 -28 -53 -31 -47 -3 7 8 39 24
72 36 75 43 53 7 -25z m-48 -6 c-18 -41 -41 -52 -26 -12 14 36 19 44 30 44 5
0 3 -14 -4 -32z m-56 -12 c0 -11 -53 -116 -61 -121 -14 -9 -11 3 17 66 15 33
31 59 35 59 5 0 9 -2 9 -4z m-94 -101 c-19 -48 -44 -75 -31 -34 12 40 37 90
43 85 3 -3 -3 -26 -12 -51z m-70 -32 c-14 -26 -25 -42 -26 -35 0 17 40 95 46
89 3 -3 -6 -27 -20 -54z m-1916 8 c0 -4 -12 -24 -27 -44 -16 -19 -34 -43 -41
-53 -15 -21 18 36 45 78 19 30 23 33 23 19z m1836 -61 c-28 -42 -40 -52 -28
-22 15 36 47 82 50 72 2 -6 -8 -29 -22 -50z m-46 12 c0 -4 -11 -23 -25 -42
-15 -20 -25 -28 -25 -18 0 8 9 27 21 42 21 27 29 32 29 18z m-1950 -22 c0 -5
-5 -10 -11 -10 -5 0 -7 5 -4 10 3 6 8 10 11 10 2 0 4 -4 4 -10z m1880 5 c0
-10 -43 -85 -51 -91 -13 -8 -11 2 12 51 12 25 25 45 30 45 5 0 9 -2 9 -5z
m-1828 -95 c-9 -16 -20 -30 -24 -30 -4 0 1 13 10 30 9 16 20 30 24 30 4 0 -1
-13 -10 -30z m1709 -22 c-11 -18 -21 -26 -21 -18 0 19 30 63 37 56 3 -3 -4
-20 -16 -38z m-67 -23 c-15 -20 -29 -34 -31 -31 -6 6 15 45 36 69 27 32 24 -1
-5 -38z m-59 -21 c-23 -36 -30 -23 -9 18 10 18 19 27 22 20 2 -7 -4 -24 -13
-38z m-85 -60 c-18 -21 -24 -10 -8 15 7 12 14 17 16 11 2 -6 -2 -17 -8 -26z
m-71 -21 c-18 -21 -35 -40 -36 -42 -2 -2 -6 -1 -10 2 -8 8 56 77 71 77 5 0 -6
-17 -25 -37z m-101 -53 c-13 -20 -28 -27 -28 -12 0 10 22 32 32 32 5 0 3 -9
-4 -20z m-92 -58 c-18 -16 -18 -16 -6 6 6 13 14 21 18 18 3 -4 -2 -14 -12 -24z
m-220 -130 c-18 -16 -18 -16 -6 6 6 13 14 21 18 18 3 -4 -2 -14 -12 -24z m-71
-41 c-3 -6 -11 -11 -17 -11 -6 0 -6 6 2 15 14 17 26 13 15 -4z m-45 -9 c0 -12
-28 -48 -33 -42 -8 8 11 50 23 50 5 0 10 -4 10 -8z"/>
<path d="M6295 11753 c-11 -2 -60 -7 -109 -11 -62 -5 -91 -11 -94 -21 -4 -11
5 -12 39 -8 24 3 86 11 137 18 50 6 92 16 92 20 0 9 -27 10 -65 2z"/>
<path d="M6050 11719 c0 -5 5 -7 10 -4 6 3 10 8 10 11 0 2 -4 4 -10 4 -5 0
-10 -5 -10 -11z"/>
<path d="M6140 11679 c0 -5 5 -7 10 -4 6 3 10 8 10 11 0 2 -4 4 -10 4 -5 0
-10 -5 -10 -11z"/>
<path d="M6013 11545 c-3 -9 -3 -18 -1 -21 9 -9 59 16 53 26 -10 16 -45 12
-52 -5z"/>
<path d="M2705 11080 c3 -5 8 -10 11 -10 2 0 4 5 4 10 0 6 -5 10 -11 10 -5 0
-7 -4 -4 -10z"/>
<path d="M2850 11076 c0 -22 17 -28 24 -10 9 22 8 24 -9 24 -8 0 -15 -6 -15
-14z"/>
<path d="M2950 11070 c0 -5 5 -10 10 -10 6 0 10 5 10 10 0 6 -4 10 -10 10 -5
0 -10 -4 -10 -10z"/>
<path d="M2126 10941 c-4 -5 -2 -12 3 -15 5 -4 12 -2 15 3 4 5 2 12 -3 15 -5
4 -12 2 -15 -3z"/>
<path d="M3715 10940 c3 -5 11 -10 16 -10 6 0 7 5 4 10 -3 6 -11 10 -16 10 -6
0 -7 -4 -4 -10z"/>
<path d="M4380 10810 c0 -5 7 -10 16 -10 8 0 12 5 9 10 -3 6 -10 10 -16 10 -5
0 -9 -4 -9 -10z"/>
<path d="M4476 10791 c-4 -5 -2 -12 3 -15 5 -4 12 -2 15 3 4 5 2 12 -3 15 -5
4 -12 2 -15 -3z"/>
<path d="M4620 10744 c0 -21 21 -28 37 -12 13 14 12 16 -11 20 -17 4 -26 1
-26 -8z"/>
<path d="M4690 10731 c0 -5 6 -14 14 -20 11 -9 16 -9 21 0 4 6 1 15 -6 20 -18
11 -29 11 -29 0z"/>
<path d="M5120 10585 c0 -8 5 -15 10 -15 6 0 10 7 10 15 0 8 -4 15 -10 15 -5
0 -10 -7 -10 -15z"/>
<path d="M5205 10560 c-3 -5 -1 -10 4 -10 6 0 11 5 11 10 0 6 -2 10 -4 10 -3
0 -8 -4 -11 -10z"/>
<path d="M5285 10530 c-3 -5 -2 -17 3 -26 8 -14 10 -14 21 0 13 15 8 36 -9 36
-5 0 -12 -4 -15 -10z"/>
<path d="M5620 10396 c0 -14 5 -26 10 -26 6 0 10 9 10 19 0 11 -4 23 -10 26
-6 4 -10 -5 -10 -19z"/>
<path d="M5690 10363 c0 -16 -3 -39 -7 -52 -4 -17 -3 -22 5 -17 7 4 12 17 12
30 0 12 5 27 11 33 6 6 8 16 5 22 -13 20 -26 11 -26 -16z"/>
<path d="M5260 10203 c-25 -3 -49 -9 -55 -15 -14 -15 152 -5 167 10 12 12 -11
13 -112 5z"/>
<path d="M5450 10185 c0 -9 5 -15 11 -13 6 2 11 8 11 13 0 5 -5 11 -11 13 -6
2 -11 -4 -11 -13z"/>
<path d="M4485 10179 c51 -17 166 -19 260 -5 l90 13 -190 1 c-134 0 -181 -3
-160 -9z"/>
<path d="M5517 10139 c-8 -30 -2 -35 58 -50 28 -6 58 -15 67 -20 23 -12 28
-11 28 1 0 6 -6 10 -14 10 -8 0 -18 5 -22 11 -11 18 36 1 99 -38 43 -26 62
-32 70 -24 14 14 5 23 -63 51 -30 12 -77 33 -104 46 -27 13 -63 26 -81 30 -28
5 -33 2 -38 -17z"/>
<path d="M4590 10130 c20 -13 60 -13 60 0 0 6 -17 10 -37 10 -28 0 -34 -3 -23
-10z"/>
<path d="M5432 10124 c4 -21 22 -23 26 -1 2 10 -3 17 -13 17 -10 0 -15 -6 -13
-16z"/>
<path d="M5685 9930 c-3 -5 -1 -10 4 -10 6 0 11 5 11 10 0 6 -2 10 -4 10 -3 0
-8 -4 -11 -10z"/>
<path d="M5638 9905 c2 -14 6 -25 8 -25 2 0 4 11 4 25 0 14 -4 25 -9 25 -4 0
-6 -11 -3 -25z"/>
<path d="M4150 9719 c0 -6 10 -19 23 -30 27 -22 12 -24 -36 -4 -27 11 -43 12
-63 5 -15 -6 -41 -8 -57 -4 -22 5 -28 3 -22 -7 6 -9 2 -10 -16 -4 -13 4 -35 7
-49 7 -14 0 -28 4 -31 9 -3 5 -21 12 -40 15 -29 4 -40 -1 -74 -31 -22 -20 -51
-38 -65 -41 -14 -2 -38 -9 -54 -14 -18 -6 -35 -6 -48 1 -14 8 -25 5 -45 -10
-14 -12 -30 -21 -35 -21 -5 0 -20 -12 -33 -27 -30 -36 -40 -25 -19 21 10 19
15 38 12 42 -11 11 -67 -38 -77 -68 -14 -41 -31 -35 -25 10 5 34 4 35 -9 19
-10 -12 -18 -54 -22 -113 -7 -84 -16 -115 -27 -83 -4 13 5 100 17 163 11 57
-10 38 -24 -21 -6 -27 -12 -74 -13 -105 -2 -40 -6 -58 -15 -58 -7 0 -13 12
-13 27 0 42 -17 14 -22 -36 -4 -42 -2 -46 53 -98 56 -53 57 -55 61 -119 4 -62
6 -66 55 -117 70 -72 125 -155 118 -178 -4 -11 -2 -19 4 -19 6 0 11 -7 11 -15
0 -8 -4 -15 -10 -15 -5 0 -10 -4 -10 -10 0 -5 6 -10 13 -10 10 0 13 -19 12
-78 -2 -42 -6 -92 -9 -109 -10 -43 46 -207 84 -248 15 -16 46 -54 68 -84 32
-43 50 -57 93 -72 30 -10 67 -18 82 -19 16 0 36 -4 46 -10 16 -8 29 2 81 61
l62 70 -23 25 c-26 28 -20 30 23 8 22 -11 33 -13 41 -5 8 8 2 20 -23 41 l-35
31 42 -21 c85 -41 86 -19 1 37 -74 48 -111 62 -102 39 8 -20 -10 -21 -26 -1
-7 8 -21 15 -32 15 -15 0 -18 -5 -13 -21 l7 -22 -30 22 c-35 24 -46 27 -39 7
11 -28 -8 -26 -40 6 -25 24 -33 28 -33 15 0 -23 -12 -21 -28 3 -19 31 -35 24
-30 -12 4 -28 3 -30 -6 -14 -6 10 -21 31 -33 46 -37 46 -25 77 40 100 39 15
46 30 22 53 -18 19 -9 27 31 27 18 0 36 5 40 11 4 8 -4 9 -27 5 -34 -7 -34 -6
-9 8 28 15 142 32 300 43 188 14 343 0 366 -32 11 -15 11 -21 1 -27 -9 -6 -7
-12 7 -23 17 -13 18 -15 3 -15 -9 0 -17 -4 -17 -9 0 -11 65 -61 79 -61 16 0
13 16 -4 30 -20 17 -19 31 2 23 12 -5 15 -2 10 10 -5 14 -2 15 21 6 26 -10 76
-6 142 12 19 6 69 13 110 17 52 5 75 11 75 20 0 18 -62 45 -71 31 -4 -6 -20
-8 -39 -5 -27 5 -33 3 -38 -14 -3 -11 -11 -20 -17 -20 -7 0 -10 7 -6 15 8 21
-22 31 -46 16 -23 -14 -43 -3 -43 23 0 13 -11 23 -30 29 -35 12 -54 34 -55 63
0 33 -96 85 -255 139 -77 26 -160 58 -184 71 -24 13 -62 29 -85 35 -22 6 -58
19 -79 29 -21 11 -69 22 -107 26 -59 6 -73 4 -102 -14 -19 -12 -43 -30 -53
-42 -42 -47 -48 -7 -7 54 15 22 33 55 41 72 7 17 37 53 67 78 52 45 58 48 129
53 64 5 75 9 75 24 0 11 1 19 3 19 1 0 31 -9 67 -20 36 -11 71 -20 78 -20 25
0 11 20 -33 46 -25 14 -42 30 -39 35 6 10 37 -5 131 -62 69 -43 83 -47 83 -24
0 8 -24 26 -52 41 -29 14 -67 37 -85 50 -17 13 -43 24 -56 24 -21 0 -24 4 -19
26 3 19 9 24 23 21 25 -7 24 5 -1 21 -12 7 -18 17 -15 22 4 6 11 7 17 4 6 -4
8 1 6 11 -4 23 -18 30 -110 51 -43 10 -75 20 -73 23 3 2 40 5 83 6 73 1 90 -3
176 -40 58 -25 50 1 -9 31 -30 16 -55 32 -55 37 0 12 13 8 60 -19 46 -27 110
-41 110 -25 0 5 -9 11 -20 14 -23 6 -27 27 -5 27 28 0 15 16 -38 48 -57 35
-67 38 -67 21z m-530 -149 c0 -5 -2 -10 -4 -10 -3 0 -8 5 -11 10 -3 6 -1 10 4
10 6 0 11 -4 11 -10z m393 -12 c24 -12 36 -23 29 -26 -16 -5 -92 27 -92 40 0
13 18 9 63 -14z m-378 -25 c30 -14 47 -33 30 -33 -15 0 -85 34 -85 41 0 13 15
11 55 -8z m76 7 c5 0 9 -4 9 -10 0 -14 -13 -12 -36 6 -17 14 -17 15 -1 10 10
-3 23 -6 28 -6z m307 -26 c35 -10 26 -27 -10 -20 -39 8 -62 26 -32 26 10 0 29
-3 42 -6z m-547 -241 c-12 -20 -14 -14 -5 12 4 9 9 14 11 11 3 -2 0 -13 -6
-23z m100 -30 c-12 -20 -14 -14 -5 12 4 9 9 14 11 11 3 -2 0 -13 -6 -23z m377
-262 c12 -6 22 -16 22 -22 0 -5 -13 -3 -30 6 -33 17 -50 19 -50 6 0 -9 89 -39
210 -72 25 -6 40 -14 34 -16 -6 -2 -74 11 -150 29 -211 49 -267 46 -301 -14
-11 -22 -12 -22 -13 -3 0 11 18 41 40 67 30 35 49 48 73 50 38 4 134 -14 165
-31z m-337 -18 c-9 -16 -10 -15 -11 8 0 14 3 29 8 33 12 12 14 -22 3 -41z m69
-230 c-11 -17 -11 -17 -6 0 3 10 7 33 8 50 l1 32 4 -32 c2 -18 -1 -41 -7 -50z
m120 -405 c14 -9 23 -18 20 -21 -8 -8 -88 61 -101 86 -7 14 2 8 22 -13 19 -20
45 -43 59 -52z m85 37 c22 -19 35 -35 29 -35 -6 0 -28 16 -50 35 -21 19 -34
34 -29 34 6 0 28 -15 50 -34z m-26 -29 c14 -14 20 -26 15 -26 -11 0 -74 55
-74 65 0 10 34 -12 59 -39z"/>
<path d="M5852 9693 c-7 -12 -12 -30 -12 -40 1 -13 5 -11 16 10 8 16 13 34 11
40 -2 7 -9 3 -15 -10z"/>
<path d="M3296 9628 c-18 -26 -21 -64 -5 -74 17 -10 30 10 36 55 6 46 -7 54
-31 19z"/>
<path d="M4230 9562 c0 -14 10 -24 31 -31 42 -15 59 -14 59 3 0 19 -22 35 -58
42 -28 6 -32 4 -32 -14z"/>
<path d="M4185 9550 c-3 -5 -2 -10 4 -10 5 0 13 5 16 10 3 6 2 10 -4 10 -5 0
-13 -4 -16 -10z"/>
<path d="M4210 9520 c0 -5 5 -10 10 -10 6 0 10 5 10 10 0 6 -4 10 -10 10 -5 0
-10 -4 -10 -10z"/>
<path d="M4240 9511 c0 -4 27 -27 60 -52 42 -31 59 -49 56 -62 -6 -24 22 -51
39 -37 9 7 23 2 51 -20 75 -58 116 -81 131 -76 21 8 8 23 -52 57 -29 16 -84
59 -121 94 -60 56 -164 118 -164 96z"/>
<path d="M4190 9472 c0 -25 29 -82 42 -82 6 0 8 11 4 26 l-7 26 33 -20 c18
-11 44 -23 58 -27 25 -8 25 -8 6 14 -18 20 -116 81 -130 81 -3 0 -6 -8 -6 -18z"/>
<path d="M4360 9300 c0 -28 140 -123 156 -107 9 9 -52 74 -86 92 -42 21 -70
27 -70 15z"/>
<path d="M4595 9250 c-7 -12 2 -30 16 -30 12 0 12 27 0 35 -5 3 -12 1 -16 -5z"/>
<path d="M5985 8910 c12 -41 27 -60 20 -25 -4 17 -11 35 -17 40 -7 7 -8 2 -3
-15z"/>
<path d="M6130 8890 c-8 -5 -11 -12 -7 -16 4 -4 13 -2 19 4 15 15 7 24 -12 12z"/>
<path d="M3413 8865 c-7 -8 -13 -17 -13 -19 0 -6 68 -36 81 -36 17 0 9 19 -12
25 -15 5 -17 10 -9 20 8 9 6 14 -6 19 -22 8 -27 7 -41 -9z"/>
<path d="M4880 8852 c0 -15 77 -52 94 -46 28 11 17 23 -36 39 -60 18 -58 17
-58 7z"/>
<path d="M4835 8830 c-3 -5 9 -19 27 -31 l33 -20 -35 7 c-31 6 -33 5 -21 -10
15 -18 96 -23 106 -7 6 10 -75 71 -94 71 -5 0 -13 -4 -16 -10z"/>
<path d="M3370 8811 c0 -9 89 -41 112 -41 21 0 4 20 -24 28 -61 19 -88 22 -88
13z"/>
<path d="M3065 8771 c-6 -11 9 -23 19 -14 9 9 7 23 -3 23 -6 0 -12 -4 -16 -9z"/>
<path d="M3113 8768 c2 -7 -2 -21 -11 -31 -19 -22 -12 -30 22 -21 21 5 26 12
26 35 0 23 -5 29 -21 29 -12 0 -19 -5 -16 -12z"/>
<path d="M3390 8761 c0 -9 62 -22 70 -14 8 7 -24 23 -47 23 -13 0 -23 -4 -23
-9z"/>
<path d="M3410 8722 c0 -5 7 -13 16 -16 10 -4 14 -1 12 6 -5 15 -28 23 -28 10z"/>
<path d="M4925 8710 c-12 -19 16 -39 78 -55 74 -19 77 -19 77 4 0 25 -17 37
-65 45 -22 4 -50 10 -61 12 -12 3 -25 0 -29 -6z"/>
<path d="M3365 8691 c-3 -5 -1 -12 5 -16 14 -9 52 4 45 16 -8 12 -42 12 -50 0z"/>
<path d="M5110 8660 c0 -5 5 -10 10 -10 6 0 10 5 10 10 0 6 -4 10 -10 10 -5 0
-10 -4 -10 -10z"/>
<path d="M4440 8614 c0 -7 9 -22 20 -35 10 -13 19 -19 20 -13 0 7 -9 22 -20
35 -10 13 -19 19 -20 13z"/>
<path d="M4316 8550 c22 -36 44 -47 44 -21 0 10 -11 26 -25 35 -35 23 -39 20
-19 -14z"/>
<path d="M4246 8561 c-6 -9 42 -55 67 -64 25 -9 22 15 -5 40 -28 24 -56 35
-62 24z"/>
<path d="M4220 8500 c24 -21 28 -27 12 -20 -44 22 -46 3 -3 -28 41 -30 69 -36
43 -10 -19 19 -14 30 11 22 l22 -7 -20 23 c-22 24 -66 50 -87 50 -7 0 3 -14
22 -30z"/>
<path d="M5170 8495 c0 -8 5 -15 10 -15 6 0 10 7 10 15 0 8 -4 15 -10 15 -5 0
-10 -7 -10 -15z"/>
<path d="M4136 8471 c-11 -17 66 -67 85 -56 13 9 -6 32 -42 51 -33 16 -36 17
-43 5z"/>
<path d="M4110 8425 c0 -8 64 -45 78 -45 23 0 12 16 -23 33 -36 17 -55 21 -55
12z"/>
<path d="M7636 8413 c-15 -8 -30 -12 -33 -9 -3 3 -15 0 -27 -6 -11 -7 -24 -11
-28 -10 -5 1 -8 -2 -8 -8 0 -5 -8 -10 -17 -10 -10 0 -31 -9 -47 -19 -16 -11
-35 -17 -42 -14 -9 3 -14 -2 -14 -12 0 -10 -12 -34 -27 -53 -21 -27 -28 -51
-34 -111 -4 -42 -10 -107 -14 -146 -5 -54 -2 -91 14 -161 35 -156 130 -394
156 -394 7 0 27 -11 43 -25 17 -14 34 -25 39 -25 5 0 31 -24 59 -52 45 -48 50
-58 53 -105 3 -56 -10 -72 -46 -58 -10 3 -19 5 -21 3 -2 -2 -8 6 -14 17 -11
19 -11 19 -19 0 -6 -16 -8 -13 -8 13 -1 39 -16 42 -29 5 -9 -25 -11 -22 -12
27 -1 44 -3 51 -11 33 -27 -67 -29 -69 -24 -15 3 31 2 52 -4 52 -11 0 -30 -61
-32 -100 0 -23 -1 -23 -9 -5 -5 11 -6 45 -3 76 3 36 1 59 -6 63 -6 4 -11 23
-11 42 0 21 -4 33 -10 29 -6 -4 -10 6 -10 24 0 16 -5 31 -11 33 -5 2 -13 22
-16 46 -4 32 -10 42 -24 42 -22 0 -23 -13 -5 -97 16 -73 6 -103 -12 -36 -18
65 -25 47 -12 -27 6 -34 9 -68 6 -76 -8 -21 -24 -17 -28 6 -2 12 -7 19 -13 18
-5 -2 -9 -12 -7 -23 1 -10 -14 -43 -34 -72 -35 -51 -36 -55 -32 -127 4 -88 22
-116 75 -116 18 0 33 4 33 8 0 9 48 36 66 37 6 0 18 6 27 13 10 9 50 14 109
16 111 3 155 22 208 87 43 54 65 110 47 121 -9 5 -6 11 8 22 11 9 23 16 28 16
4 0 7 9 7 20 0 24 -8 25 -34 5 -22 -17 -36 -19 -36 -7 0 4 14 16 30 25 37 22
38 37 3 37 l-26 0 23 25 23 25 -22 0 c-19 0 -20 3 -11 20 9 17 8 20 -10 20
-18 0 -19 3 -9 21 10 19 9 20 -11 14 -19 -6 -21 -4 -15 16 6 17 4 21 -8 16
-21 -8 -28 2 -16 25 9 17 8 19 -10 13 -24 -7 -29 13 -8 34 10 11 8 13 -10 8
-26 -6 -33 20 -8 29 8 4 15 12 15 20 0 17 -5 17 -31 4 -28 -16 -23 -2 12 31
30 28 32 54 4 42 -17 -6 -21 12 -5 22 16 10 12 35 -6 35 -9 0 -27 -9 -41 -20
-31 -24 -43 -25 -43 -4 0 12 -6 15 -25 10 -18 -5 -25 -2 -25 9 0 8 -7 15 -15
15 -8 0 -15 5 -15 11 0 7 -8 19 -18 28 -25 22 -58 71 -66 99 -6 17 -3 22 12
22 10 0 27 -9 37 -20 20 -23 92 -28 127 -9 15 8 19 8 14 0 -16 -25 24 -9 48
20 15 17 26 24 26 16 0 -8 -9 -22 -20 -32 -11 -10 -20 -25 -20 -33 0 -23 57
34 81 81 13 24 26 37 36 35 16 -3 63 -79 63 -103 0 -8 4 -15 9 -15 11 0 24
-38 21 -62 -1 -12 4 -16 13 -12 18 6 28 -27 21 -70 l-6 -31 26 27 25 28 10
-33 c17 -52 29 -127 20 -127 -11 0 -32 -40 -25 -47 3 -3 12 -1 20 6 11 9 15 7
20 -11 20 -76 -20 -224 -74 -273 -11 -10 -17 -22 -14 -27 3 -5 -2 -18 -12 -29
-13 -15 -14 -19 -3 -19 8 0 2 -12 -16 -29 -16 -15 -38 -37 -48 -49 -18 -20
-18 -20 2 -15 26 7 28 -13 2 -22 -10 -3 -29 -15 -42 -27 l-24 -21 23 6 c30 7
28 -9 -3 -29 -20 -13 -23 -20 -14 -30 11 -14 -3 -23 -56 -37 -18 -4 -18 -5 3
-6 12 0 22 -5 22 -10 0 -5 -10 -13 -22 -17 -13 -4 -34 -15 -47 -25 -18 -15
-41 -19 -96 -19 -50 0 -76 -4 -84 -14 -18 -22 13 -28 110 -20 106 8 152 31
190 94 15 25 28 50 28 57 1 6 17 35 36 65 87 131 194 390 182 441 -3 12 -2 44
3 72 5 32 4 55 -4 67 -8 14 -7 20 8 31 16 12 16 14 2 26 -19 16 -21 48 -3 54
9 3 7 9 -5 24 -21 23 -23 40 -6 45 7 3 5 13 -7 32 -15 23 -16 29 -5 36 12 7
11 12 -3 28 -21 23 -22 32 -2 32 21 0 19 13 -5 35 -24 21 -26 40 -5 31 34 -12
18 16 -78 142 -16 20 -31 49 -34 64 -8 43 -65 86 -135 104 -35 9 -65 19 -68
23 -9 11 -36 9 -64 -6z m-169 -1229 c5 -15 -71 -46 -92 -38 -8 3 -15 17 -15
31 0 23 3 24 52 21 28 -2 53 -8 55 -14z m33 -44 c11 -7 4 -10 -25 -10 -29 0
-36 3 -25 10 8 5 20 10 25 10 6 0 17 -5 25 -10z"/>
<path d="M7242 8352 c-29 -10 -50 -25 -62 -45 -18 -29 -18 -47 -2 -47 8 0 115
101 110 104 -2 1 -23 -4 -46 -12z"/>
<path d="M7220 8270 c-18 -17 -30 -34 -27 -37 8 -8 92 41 90 52 -4 21 -33 15
-63 -15z"/>
<path d="M7204 8202 c-32 -26 -39 -109 -13 -167 11 -25 17 -50 14 -56 -4 -6 1
-16 11 -24 11 -7 16 -17 12 -20 -8 -8 56 -135 75 -150 7 -5 16 -18 20 -27 9
-26 47 -24 40 2 -3 11 -12 20 -20 20 -9 0 -13 6 -9 15 3 9 -3 30 -14 48 -11
17 -20 42 -20 54 0 12 -4 24 -10 28 -5 3 -7 12 -4 19 3 8 0 17 -5 21 -6 3 -9
11 -5 16 3 5 0 16 -6 24 -6 8 -9 24 -5 36 6 18 4 20 -14 14 -23 -7 -28 4 -9
23 10 10 10 15 -2 22 -12 7 -12 12 4 28 11 13 14 22 7 27 -6 3 -11 19 -11 36
0 33 -7 35 -36 11z"/>
<path d="M6520 8154 c0 -11 13 -27 30 -37 17 -10 30 -14 30 -9 0 4 -13 21 -30
37 -27 26 -30 27 -30 9z"/>
<path d="M6522 8094 c2 -10 40 -50 86 -90 76 -65 100 -82 142 -98 8 -3 25 -13
38 -22 12 -9 22 -12 22 -6 0 6 -60 57 -132 114 -159 125 -161 126 -156 102z"/>
<path d="M6873 8029 c-7 -18 -11 -35 -8 -37 6 -6 27 48 23 60 -2 5 -9 -6 -15
-23z"/>
<path d="M6720 7990 c0 -5 3 -10 8 -10 4 0 25 -18 47 -40 41 -40 65 -50 65
-27 0 17 -22 36 -73 65 -43 25 -47 26 -47 12z"/>
<path d="M7697 7953 c-4 -3 -7 -13 -7 -21 0 -12 3 -12 15 -2 8 7 15 16 15 21
0 11 -14 12 -23 2z"/>
<path d="M3186 7891 c-8 -13 71 -101 90 -101 20 0 17 11 -9 40 -41 47 -75 72
-81 61z"/>
<path d="M3240 7894 c0 -9 80 -97 98 -108 12 -7 14 -3 8 20 -10 41 -106 120
-106 88z"/>
<path d="M3130 7862 c0 -19 17 -37 58 -60 35 -19 28 8 -11 46 -38 37 -47 39
-47 14z"/>
<path d="M7947 7783 c-4 -3 -7 -13 -7 -22 1 -13 3 -13 11 2 11 19 8 33 -4 20z"/>
<path d="M7943 7700 c-21 -39 -20 -67 1 -31 6 10 17 28 24 39 6 12 9 23 4 26
-4 2 -17 -13 -29 -34z"/>
<path d="M3620 7723 c1 -18 19 -35 29 -28 9 5 9 10 0 21 -12 15 -29 19 -29 7z"/>
<path d="M3640 7641 c0 -18 83 -101 101 -101 16 0 10 11 -38 66 -50 58 -63 65
-63 35z"/>
<path d="M3680 7649 c0 -5 5 -7 10 -4 6 3 10 8 10 11 0 2 -4 4 -10 4 -5 0 -10
-5 -10 -11z"/>
<path d="M7077 7653 c-20 -19 -2 -60 55 -131 90 -111 98 -118 98 -87 0 9 -22
43 -49 78 -26 34 -58 81 -70 105 -23 45 -24 46 -34 35z"/>
<path d="M8106 7625 c-11 -30 -6 -40 11 -22 12 12 14 20 6 28 -7 7 -12 6 -17
-6z"/>
<path d="M3747 7623 c-10 -9 -9 -23 2 -23 5 0 11 7 15 15 5 15 -5 20 -17 8z"/>
<path d="M7976 7595 c-3 -8 -1 -15 4 -15 13 0 22 18 11 24 -5 3 -11 -1 -15 -9z"/>
<path d="M3636 7585 c4 -8 10 -15 14 -15 5 0 12 -9 15 -21 6 -17 102 -89 120
-89 3 0 -21 23 -54 50 -33 28 -65 59 -71 70 -12 23 -32 27 -24 5z"/>
<path d="M3644 7524 c3 -9 6 -19 6 -24 0 -10 99 -84 105 -78 3 2 -18 26 -45
52 -28 26 -50 52 -50 57 0 5 -5 9 -11 9 -6 0 -8 -7 -5 -16z"/>
<path d="M7060 7488 c1 -35 88 -178 109 -178 5 0 -4 24 -20 53 -16 28 -39 71
-51 95 -22 41 -38 54 -38 30z"/>
<path d="M7110 7486 c0 -19 46 -100 70 -121 19 -18 20 -17 20 4 0 12 -16 43
-35 68 -19 25 -35 50 -35 54 0 5 -4 9 -10 9 -5 0 -10 -6 -10 -14z"/>
<path d="M7960 7490 c0 -5 5 -10 10 -10 6 0 10 5 10 10 0 6 -4 10 -10 10 -5 0
-10 -4 -10 -10z"/>
<path d="M8080 7474 c0 -8 5 -12 10 -9 6 3 10 10 10 16 0 5 -4 9 -10 9 -5 0
-10 -7 -10 -16z"/>
<path d="M3670 7443 c0 -23 65 -72 118 -88 41 -12 22 12 -40 51 -75 47 -78 48
-78 37z"/>
<path d="M8067 7423 c-10 -9 -9 -23 2 -23 5 0 11 7 15 15 5 15 -5 20 -17 8z"/>
<path d="M7040 7408 c1 -16 28 -53 35 -47 6 7 -18 59 -27 59 -5 0 -8 -6 -8
-12z"/>
<path d="M3700 7371 c0 -19 112 -91 140 -91 24 0 7 27 -24 38 -19 7 -50 24
-70 37 -41 28 -46 29 -46 16z"/>
<path d="M7585 7370 c-3 -5 -1 -10 4 -10 6 0 11 5 11 10 0 6 -2 10 -4 10 -3 0
-8 -4 -11 -10z"/>
<path d="M8052 7368 c-14 -14 -16 -38 -4 -38 12 0 32 23 32 37 0 16 -12 17
-28 1z"/>
<path d="M7090 7338 c0 -19 38 -78 50 -78 14 0 13 6 -12 50 -23 40 -38 51 -38
28z"/>
<path d="M7030 7318 c0 -25 84 -127 95 -116 8 8 -8 39 -49 95 -35 48 -46 53
-46 21z"/>
<path d="M3700 7320 c0 -10 99 -76 136 -91 19 -6 24 -5 24 6 0 8 -4 15 -8 15
-5 0 -38 18 -75 40 -71 43 -77 45 -77 30z"/>
<path d="M7026 7254 c-6 -16 15 -54 63 -111 45 -54 41 -10 -5 58 -48 71 -50
73 -58 53z"/>
<path d="M8005 7239 c-10 -15 3 -25 16 -12 7 7 7 13 1 17 -6 3 -14 1 -17 -5z"/>
<path d="M7996 7183 c-9 -9 -7 -33 3 -33 12 0 22 28 12 34 -5 3 -11 3 -15 -1z"/>
<path d="M7037 7144 c-14 -14 -6 -39 22 -74 16 -19 31 -33 34 -30 14 17 -41
119 -56 104z"/>
<path d="M7209 7083 c-2 -22 -8 -50 -14 -70 -9 -27 31 -55 41 -28 4 8 0 23 -7
33 -11 14 -10 14 8 -2 13 -10 29 -16 38 -12 14 5 11 13 -17 46 -32 38 -47 48
-49 33z"/>
<path d="M7899 6949 c-33 -35 -42 -71 -11 -48 35 26 72 63 72 71 0 19 -34 6
-61 -23z"/>
<path d="M7062 6945 c-17 -38 -15 -51 13 -69 13 -9 27 -16 30 -16 11 0 4 39
-7 44 -10 5 -10 7 0 12 6 3 12 17 12 30 0 33 -33 32 -48 -1z"/>
<path d="M7410 6898 c0 -16 135 -43 163 -32 29 11 19 22 -28 28 -25 3 -65 9
-90 12 -35 5 -45 3 -45 -8z"/>
<path d="M7046 6863 c-14 -14 -5 -53 16 -67 32 -22 48 -20 48 7 0 23 -52 72
-64 60z"/>
<path d="M7405 6850 c-10 -17 13 -30 55 -30 36 0 69 14 59 25 -14 13 -106 17
-114 5z"/>
<path d="M7410 6780 c0 -23 10 -26 28 -8 18 18 15 28 -8 28 -13 0 -20 -7 -20
-20z"/>
<path d="M7615 6753 c-11 -2 -30 -6 -42 -9 -34 -7 -28 -24 8 -24 34 0 69 15
69 30 0 10 -2 10 -35 3z"/>
<path d="M2682 6530 c-7 -11 -26 -23 -42 -27 -34 -6 -36 -9 -15 -29 11 -11 19
-12 34 -5 26 14 62 61 55 72 -8 14 -18 11 -32 -11z"/>
<path d="M3934 6519 c4 -13 9 -34 11 -45 5 -33 24 -64 40 -64 22 0 18 20 -7
48 -20 21 -13 19 52 -15 129 -65 165 -77 154 -50 -3 8 -37 29 -75 47 -39 18
-86 43 -104 56 -19 13 -44 28 -56 35 -20 10 -21 9 -15 -12z"/>
<path d="M4030 6405 c0 -8 7 -15 16 -15 14 0 14 3 4 15 -7 8 -14 15 -16 15 -2
0 -4 -7 -4 -15z"/>
<path d="M2970 6080 c0 -11 4 -20 8 -20 5 0 16 -16 25 -35 15 -32 37 -47 37
-26 0 15 -51 101 -61 101 -5 0 -9 -9 -9 -20z"/>
<path d="M2860 6070 c0 -5 4 -11 9 -14 12 -8 20 -66 9 -72 -4 -3 -8 5 -8 18 0
14 -7 33 -16 44 -14 18 -15 15 -9 -34 3 -29 10 -62 15 -75 l9 -22 0 22 c1 12
6 25 13 29 8 5 9 -5 5 -34 -4 -32 -2 -42 9 -42 11 0 14 17 14 71 0 39 -4 78
-10 88 -10 20 -40 36 -40 21z"/>
<path d="M3051 6045 c15 -25 24 -33 30 -24 12 19 -6 54 -30 57 l-21 3 21 -36z"/>
<path d="M2720 5978 c0 -79 9 -113 24 -89 6 10 57 8 74 -3 7 -4 12 -2 12 3 0
6 -5 11 -11 11 -5 0 -8 4 -4 10 3 5 13 6 23 3 14 -6 15 -4 5 8 -7 9 -15 41
-19 72 -7 62 -19 80 -29 46 -7 -20 -7 -20 -21 -2 -13 16 -14 14 -13 -27 3 -62
0 -90 -9 -90 -4 0 -8 27 -8 60 0 34 -6 66 -12 72 -9 9 -12 -9 -12 -74z m85
-35 c-9 -49 -23 -28 -17 26 3 35 6 41 14 27 6 -10 7 -34 3 -53z"/>
<path d="M2680 5970 c0 -78 14 -94 24 -27 6 39 -5 97 -19 97 -3 0 -5 -31 -5
-70z"/>
<path d="M2955 6030 c3 -5 8 -10 11 -10 2 0 4 5 4 10 0 6 -5 10 -11 10 -5 0
-7 -4 -4 -10z"/>
<path d="M2634 6013 c4 -9 10 -37 13 -60 7 -53 23 -67 23 -20 0 42 -18 97 -32
97 -6 0 -7 -8 -4 -17z"/>
<path d="M2615 5976 c5 -50 10 -64 21 -54 3 4 -1 28 -10 55 l-16 48 5 -49z"/>
<path d="M4079 5988 c9 -24 41 -38 41 -18 0 14 -25 40 -39 40 -7 0 -7 -8 -2
-22z"/>
<path d="M3410 5981 c0 -12 40 -61 51 -61 5 0 1 16 -8 35 -15 31 -43 49 -43
26z"/>
<path d="M3350 5972 c0 -17 41 -62 57 -62 12 0 11 6 -6 33 -19 31 -51 49 -51
29z"/>
<path d="M3271 5930 c0 -8 13 -31 29 -50 18 -22 30 -29 30 -20 0 9 -13 31 -30
50 -17 21 -29 29 -29 20z"/>
<path d="M3330 5928 c0 -18 18 -34 28 -24 3 4 -2 14 -11 23 -16 16 -17 16 -17
1z"/>
<path d="M3220 5911 c0 -31 62 -112 75 -99 8 8 -23 62 -50 88 -14 13 -25 18
-25 11z"/>
<path d="M3180 5881 c0 -14 54 -100 63 -101 15 0 6 28 -24 68 -31 43 -39 49
-39 33z"/>
<path d="M3140 5855 c0 -32 52 -115 72 -115 17 0 7 37 -24 82 -34 50 -48 59
-48 33z"/>
<path d="M3110 5831 c0 -47 35 -259 41 -255 12 7 11 129 -2 183 -10 44 -39 97
-39 72z"/>
<path d="M3072 5691 c3 -146 18 -173 32 -61 9 71 -5 174 -26 186 -5 3 -7 -53
-6 -125z"/>
<path d="M6764 5623 c-75 -124 -230 -330 -289 -383 l-27 -25 7 25 c5 17 -28
-10 -111 -90 -123 -119 -161 -154 -228 -205 -21 -16 -48 -38 -60 -48 -21 -18
-21 -18 4 -6 180 88 535 411 641 582 106 171 109 177 89 177 -5 0 -17 -12 -26
-27z"/>
<path d="M6653 5543 c-58 -92 -68 -113 -44 -99 14 9 121 173 121 185 0 26 -19
5 -77 -86z"/>
<path d="M4050 5595 c0 -9 10 -26 23 -39 27 -27 161 -81 177 -71 17 10 -6 32
-48 46 -20 7 -59 27 -87 46 -56 37 -65 40 -65 18z"/>
<path d="M4054 5536 c-3 -8 12 -31 38 -56 30 -30 35 -38 16 -26 -15 9 -30 16
-33 16 -13 0 -3 -28 15 -45 13 -11 18 -25 15 -37 -4 -11 12 -52 41 -105 86
-160 97 -168 234 -176 76 -5 206 15 224 33 13 13 -79 13 -124 0 -19 -6 -65
-11 -102 -12 -56 -1 -73 3 -102 23 -45 30 -50 52 -8 30 27 -13 72 -22 72 -14
0 5 -20 20 -43 35 -24 15 -52 37 -63 49 l-19 22 31 -16 c35 -18 81 -12 64 8
-6 7 -39 27 -75 44 -36 18 -65 37 -65 42 0 5 18 0 40 -11 46 -24 60 -25 60 -6
0 7 -29 30 -65 51 -36 21 -65 43 -65 48 0 6 5 6 13 0 11 -9 86 -33 101 -33 3
0 6 6 6 13 0 7 -24 25 -52 40 -29 15 -74 43 -101 62 -36 27 -49 32 -53 21z"/>
<path d="M5730 5499 c-24 -21 -42 -41 -39 -44 4 -3 26 12 50 34 24 21 42 41
39 44 -3 3 -25 -12 -50 -34z"/>
<path d="M5900 5473 c-20 -8 -40 -29 -34 -36 7 -6 64 25 64 36 0 8 -8 8 -30 0z"/>
<path d="M2815 5440 c-3 -6 -3 -19 0 -30 5 -15 15 -20 45 -20 46 0 62 17 25
26 -14 3 -25 12 -25 20 0 16 -36 19 -45 4z"/>
<path d="M5926 5369 c-15 -12 -25 -23 -22 -26 7 -8 43 15 50 32 7 20 4 19 -28
-6z"/>
<path d="M2980 5254 c0 -8 5 -12 10 -9 6 3 10 10 10 16 0 5 -4 9 -10 9 -5 0
-10 -7 -10 -16z"/>
<path d="M5273 5168 c-28 -17 -44 -38 -29 -38 12 0 76 43 76 51 0 13 -11 10
-47 -13z"/>
<path d="M4165 5084 c-22 -9 -62 -19 -90 -23 l-50 -7 66 -12 c36 -7 73 -12 82
-12 9 0 17 -4 17 -8 0 -5 -39 -9 -86 -9 -134 -1 -136 -28 -4 -58 44 -10 112
-17 165 -16 118 1 491 63 513 85 27 27 4 31 -66 12 -86 -23 -305 -39 -402 -30
-74 7 -74 8 -30 14 25 4 79 10 120 14 95 7 196 22 210 31 5 3 10 10 10 16 0
14 -28 11 -33 -3 -3 -8 -6 -6 -6 4 -1 14 -7 16 -33 11 -44 -9 -242 -9 -298 0
-32 5 -56 2 -85 -9z"/>
<path d="M3830 4935 c-21 -12 -23 -14 -8 -20 26 -10 52 -2 56 18 4 20 -14 21
-48 2z"/>
<path d="M3047 4873 c-15 -15 -5 -23 28 -23 39 0 47 14 13 24 -29 7 -33 7 -41
-1z"/>
<path d="M3595 4760 c-3 -5 3 -10 14 -10 12 0 21 5 21 10 0 6 -6 10 -14 10 -8
0 -18 -4 -21 -10z"/>
<path d="M9322 9489 c2 -7 10 -15 17 -17 8 -3 12 1 9 9 -2 7 -10 15 -17 17 -8
3 -12 -1 -9 -9z"/>
<path d="M8206 5978 c-3 -13 -7 -54 -10 -93 -4 -46 -11 -74 -21 -81 -10 -8
-15 -30 -16 -70 0 -32 -4 -92 -8 -132 -4 -40 -4 -75 0 -78 4 -2 10 35 14 83
12 163 25 190 20 44 -3 -83 -1 -131 5 -125 16 16 44 460 29 470 -5 2 -11 -5
-13 -18z"/>
<path d="M8119 5668 c0 -18 -2 -59 -5 -90 -7 -73 11 -78 20 -5 9 76 7 127 -4
127 -5 0 -10 -15 -11 -32z"/>
<path d="M8076 5614 c-3 -9 -6 -36 -6 -61 0 -68 24 -50 28 20 3 54 -9 76 -22
41z"/>
<path d="M8027 5523 c-4 -3 -7 -11 -7 -17 0 -6 5 -5 12 2 6 6 9 14 7 17 -3 3
-9 2 -12 -2z"/>
<path d="M7836 4479 c-9 -34 -15 -64 -12 -66 5 -5 21 45 31 95 11 54 -1 36
-19 -29z"/>
<path d="M7797 4336 c-4 -10 -7 -25 -6 -34 0 -11 4 -9 10 7 5 13 8 29 6 35 -2
5 -6 2 -10 -8z"/>
<path d="M7776 4264 c-4 -9 -4 -19 -1 -22 2 -3 7 3 11 12 4 9 4 19 1 22 -2 3
-7 -3 -11 -12z"/>
<path d="M2238 1918 c-7 -58 -3 -143 7 -148 6 -3 11 30 13 88 1 50 -1 92 -6
92 -5 0 -11 -15 -14 -32z"/>
</g>
</svg>
